<svg id="Layer_1" data-name="Layer 1" xmlns="http://www.w3.org/2000/svg" viewBox="0 0 390 844">
              
    <clipPath id="loading_clipPath">
      <path class="cls-10" d="M168.33,370.46a3.94,3.94,0,0,1,.19-1,3,3,0,0,1,.41-1,2.36,2.36,0,0,1,.49-.93,2.51,2.51,0,0,0,.48-.94,2.45,2.45,0,0,1,.15-.6,3,3,0,0,1,.15-.38h.3l1,.3h.6a9.13,9.13,0,0,1,1.42.15,9.2,9.2,0,0,0,1.2.15.5.5,0,0,1,.27.08l.26.15a2.81,2.81,0,0,0,.37.15l1.35,1.27a1.74,1.74,0,0,0,.45.3,1.46,1.46,0,0,0,.75.3l1,.38.67.22a5.43,5.43,0,0,0,.64.68,2.56,2.56,0,0,1,.56.67l.38.6v.6a1.15,1.15,0,0,0,.15.45.91.91,0,0,0,.15.23v.3l-.3.6-.38.37-.63.42-.87.52a7.36,7.36,0,0,0-.82.56,3.88,3.88,0,0,1-.53.38,1,1,0,0,0-.48.22l-.72.45a.67.67,0,0,0,.08.3,2.3,2.3,0,0,1,.3.9,1.75,1.75,0,0,1-.19.72c-.12.27-.29.61-.49,1a9.44,9.44,0,0,0-.6,1.72,7,7,0,0,0-.3,1.24c-.1.57-.18,1.16-.26,1.76s-.15,1.15-.22,1.65-.12.8-.12.9l.38-.22a1.51,1.51,0,0,1-.3.82,2.52,2.52,0,0,1-.3.38,1,1,0,0,0,.22.6l-.22.37v.86a.77.77,0,0,0,.22.57l-.22.6a15.36,15.36,0,0,0,2.47-.26l3.08-.57,3-.56a13.67,13.67,0,0,1,2.25-.26,5.58,5.58,0,0,1,2.51.26,12,12,0,0,0,1.24.56,1.19,1.19,0,0,0-.19.68c0,.35-.24.52-.64.52a4.68,4.68,0,0,0,.38.34.34.34,0,0,0,.45,0l-.23.22c-.1,0-.22.1-.37.3s-.28.3-.38.3v-.37c-.1-.1-.17-.09-.22,0a1,1,0,0,1-.23.33,1.14,1.14,0,0,0,.12.42,1.2,1.2,0,0,1,.11.41c-.2,0-.29,0-.26,0s0-.09-.12-.19-.36.13-.48.38a1.06,1.06,0,0,1-.34.45.59.59,0,0,0,.22.37.85.85,0,0,1-.6.6.62.62,0,0,1-.6-.22,4,4,0,0,1-.52.22.69.69,0,0,1-.45,0l-1.28.11-2.81.27c-1.12.1-2.36.25-3.71.45s-2.68.45-4,.75a6,6,0,0,1-.9.26c-.5.13-1,.29-1.61.49l-1.61.56c-.5.18-.78.34-.83.49s-.12.07-.37.07a7.57,7.57,0,0,0-.94.08,5.18,5.18,0,0,0-1.2.33,4.3,4.3,0,0,0-1.31.94l-.15.15a2.88,2.88,0,0,1-.83.41,3,3,0,0,0-.82.42c-.1,0-.3,0-.6.11s-.64.29-1,.49a11.36,11.36,0,0,1-1.13.52c-.37.15-.64.18-.79.08a4,4,0,0,1-1.35.79,11.47,11.47,0,0,1-2.25.71,3.51,3.51,0,0,1-1.87,0c-.5-.17-.6-.66-.3-1.46a3.57,3.57,0,0,1-1.58-1.24,2.82,2.82,0,0,1-.45-1.54l.38-1.65a1,1,0,0,0,.22-.64q0-.33,1-1.08a4.53,4.53,0,0,0,.68-.19c.4-.12.84-.27,1.31-.45s.93-.35,1.35-.53a3.54,3.54,0,0,1,.79-.26,2.31,2.31,0,0,1,.75-.18,14.31,14.31,0,0,0,1.46-.34c.53-.15,1-.31,1.5-.49a2,2,0,0,0,.94-.56.82.82,0,0,0,.82-.49.74.74,0,0,1,.68-.49.28.28,0,0,0,.41-.07,2.54,2.54,0,0,0,.34-.53,2.91,2.91,0,0,0,.22-.6.53.53,0,0,1,.23-.37l.3-.83a1.08,1.08,0,0,1,.22-.75l.15.15c.35,0,.54-.12.57-.37s0-.45,0-.6l-.37-.6a.28.28,0,0,1,0-.38c.1-.1.23-.22.41-.37s.36-.33.56-.53a1.88,1.88,0,0,0,.45-.75,1.22,1.22,0,0,0,.6-.56,3.14,3.14,0,0,0,.23-.75c.05-.27.11-.55.19-.83a1.73,1.73,0,0,1,.48-.78,2.5,2.5,0,0,0-.18-.86.8.8,0,0,1,0-.72,5.58,5.58,0,0,1,.67-1.23,8.15,8.15,0,0,1,.68-.94c-.2-.05-.15-.21.15-.49a3.88,3.88,0,0,0,.82-1.16c-.1,0-.16,0-.18,0a.21.21,0,0,0-.12,0c-.15-.15-.41-.42-.78-.82l-.79-.83a.81.81,0,0,1-.15-.3,1.33,1.33,0,0,1-.15-.6Zm-6-7.72a2.38,2.38,0,0,1,.75-2.1,3.08,3.08,0,0,1,2-.68l.42-.18a20.31,20.31,0,0,0,1.83-.94,14.21,14.21,0,0,0,2-1.39,2.14,2.14,0,0,0,.94-1.54l-.23-.22.57-1.09a14.8,14.8,0,0,1,1-1.69l1-.82a.28.28,0,0,0,0-.38l-.37-.37c.2-.1.29-.33.26-.68a1.84,1.84,0,0,1,.34-1.12.93.93,0,0,1,0-.79,2.82,2.82,0,0,1,.48-.64,5.7,5.7,0,0,0,.53-.6,1,1,0,0,0,.22-.6,3.7,3.7,0,0,0,.42-1.65,8.58,8.58,0,0,0-.12-1.05c-.05-.25,0-.41.15-.49a3.24,3.24,0,0,1,1.28,0,1.2,1.2,0,0,0,.94.27,8.09,8.09,0,0,1,1.5.07,5.83,5.83,0,0,1,1.83.6,5.38,5.38,0,0,1,1.88,1.76c.1.1,0,.3-.23.6a1.4,1.4,0,0,0-.37.6.9.9,0,0,0,0,.6,1.43,1.43,0,0,1,.11.6,1.37,1.37,0,0,1-.56.64.88.88,0,0,0-.42.79l.23.6-.15,1.8a1.7,1.7,0,0,1-.38,1.39c-.35.47-.57.76-.67.86a.57.57,0,0,0,.41.34.54.54,0,0,1,.41.26,2.76,2.76,0,0,0-.67.07c-.2.05-.3.28-.3.68a1.26,1.26,0,0,1,.41-.26,1.22,1.22,0,0,1,.34-.12l-.6.83a2.69,2.69,0,0,0-.41.52,2.63,2.63,0,0,1-.57.6,1.86,1.86,0,0,0,.08.72,3.14,3.14,0,0,0,.3.33l-.15.15a.75.75,0,0,0-.41.23.76.76,0,0,1-.42.22v.15h6.15a1.24,1.24,0,0,0,.45.19l.83.23a4.17,4.17,0,0,1,.86.3.75.75,0,0,1,.49.48,2.77,2.77,0,0,1-1.09,1,.68.68,0,0,0-.49.63,27.22,27.22,0,0,0-3.93.34c-.93.18-1.73.35-2.4.53s-1.38.33-2.1.48a16.4,16.4,0,0,1-3.12.23,14.09,14.09,0,0,0-2.36.22,18.1,18.1,0,0,1-3,.23,7.34,7.34,0,0,0-2.17.3c-.65.2-1.33.42-2,.67a1.17,1.17,0,0,1-.86-.26,1.46,1.46,0,0,1-.37-.67,7.88,7.88,0,0,1-.19-.87,2.31,2.31,0,0,0-.3-.82Zm4.27,51.37a.68.68,0,0,0,.23-.6,5.74,5.74,0,0,1-1.54-.15,1.85,1.85,0,0,1-.79-.45,8.08,8.08,0,0,1-.6-.67,3.56,3.56,0,0,0-.9-.75c-.1.2-.22.27-.37.22v-.33a.27.27,0,0,1,.22-.27l-.22-.82a2.13,2.13,0,0,1,.34-1.5,4,4,0,0,0,.48-1.88c-.1-.1-.07-.31.08-.63s.31-.71.49-1.13.35-.88.52-1.35a3.88,3.88,0,0,0,.26-1.39,5.58,5.58,0,0,0,.3-1.08,9.09,9.09,0,0,0,.08-1.32h2.62a9.75,9.75,0,0,1,1.8,1,2.39,2.39,0,0,1,.68.71.53.53,0,0,1,.07.45c0,.1,0,.17,0,.22a5.19,5.19,0,0,1-.11.64c-.07.37-.15.77-.22,1.2s-.14.83-.19,1.2-.08.59-.08.64c0,.35,0,.91-.07,1.69s-.08,1.28-.08,1.53c1.5,0,2.68,0,3.53-.07l2.17-.12c.6,0,1.15-.06,1.65-.11s1.15-.07,2-.07c0,.1.13.17.38.22l.82.19a2.9,2.9,0,0,1,.83.34.67.67,0,0,1,.37.6.92.92,0,0,1-.93,1.12,2,2,0,0,0-.3.45,3.7,3.7,0,0,0-.19.42c0,.12-.18.18-.38.18l-.82-.15a1.92,1.92,0,0,1-.94.15h-1.46a5.8,5.8,0,0,0-1.28.3,6.15,6.15,0,0,1-1.8.3,6.82,6.82,0,0,0-3.37.72,4.67,4.67,0,0,1-1.8.71,2,2,0,0,0-.71-.15C166.89,414.29,166.65,414.21,166.6,414.11Zm3.53-35.17c0-.1-.06-.1-.19,0s-.14.15,0,.15S170.13,379,170.13,378.94Zm.82-2.4a.22.22,0,0,1-.15-.08c-.15.15-.17.23-.07.23S171,376.64,171,376.54Zm.3-21.45.38-.9-.53.45Zm.75,18,.38.75.37.45h.68a3.52,3.52,0,0,0,1.12-.38,4.25,4.25,0,0,1,1-.37l.37-.45a13.65,13.65,0,0,0-1.05-1.5,5.79,5.79,0,0,0-1.42-1.28l-.3.38a3,3,0,0,0-.71,1,2.94,2.94,0,0,0-.42,1.09Zm6.3,2.55-.22.22h-.15v-.22Zm2,37.72s.07.08.07.23,0,.22-.07.22-.15-.07-.15-.22S180.23,413.36,180.33,413.36Zm.6-63.22h-.08c0-.2.08-.3.23-.3l.07.07C181.15,350.06,181.08,350.14,180.93,350.14Zm6.52,43c.1,0,.15.08.15.23a.15.15,0,0,1-.3,0C187.3,393.19,187.35,393.11,187.45,393.11Zm1.05-1c.05,0,.08.07.08.22s0,.15-.08.15a.13.13,0,0,1-.15-.15C188.35,392.21,188.4,392.14,188.5,392.14Z"></path>
    </clipPath>
    <g class="loading_g">
      <path clip-path="url(#loading_clipPath)" stroke="rgb(245, 204, 125)" fill="none" stroke-width="12" d="M110.5,363.5a51.92,51.92,0,0,0,9,0c4.27-.37,6-1.05,7,0,1.28,1.39-.54,3.95-2,10-1.69,7-.62,9.31-2,10-4,2-18.89-14.63-16-19,1.59-2.4,7.28.79,24,1,6.16.08,10,.13,10,0s-18.59-4-23,3c-1.34,2.14-1.41,5.33,0,7,1.77,2.09,4.85.57,16,0,5.21-.27,6.37,0,7-1,2.21-3.43-9.65-10.73-8-18,1.47-6.48,13.19-10.69,16-8,.37.35.85,1.08-1,10-2.32,11.17-3.45,11.91-3,16,.31,2.76,1.5,5.5-3.5,4.5-1.39-.28,2.27-.2,2-1-5.93-17.75-30-3.06-32.5,3.5-1,2.6,1.21,6.52,4,8s5,.09,14-2c9.63-2.25,12.09-2.26,13-1,.5.7.34,2.13,0,5s-.49,4.18-1,5c-1.47,2.35-3.82,1.77-9,5-2.13,1.33-3,2.1-3,3,.06,1.41,2.27,2.59,4,3,2.35.56,3.83-.27,7-1,5.57-1.29,7.07-.13,8-1,4.55-4.25-29.14-33.92-23-52s53.86-17.19,55-13c.33,1.23-3,3.8-2,6,.56,1.2,2.13,1.66,2,2-.19.51-3.66-.68-4,0s3.42,2.95,3,4-3.68.11-4,1,2.27,2,2,3c-.2.76-1.92.85-3,1-5.16.7-9.24,4.39-9,5s4.36-1.09,12-2c3.85-.46,7.87-.64,8,0s-4.9,1.68-10,6a9.49,9.49,0,0,0-3,4c-.27.72-1.27,3.43,0,5,1.74,2.17,7.11,1.38,8-1,.69-1.84-1.18-4.89-3-5-3.08-.18-7.1,8-5,11,.72,1,2.1,1.34,2,2-.17,1.07-3.9,1-4,2-.07.7,1.89,1,2,2,.15,1.26-3,2.58-4,3-7,3-13.37,8.09-13,9,.29.7,4.88-.23,9-2,4.75-2.05,4-3.13,7-4,5.2-1.5,5.48,2.24,12.5.5,1.87-.47,2-1,2-1-.09-.95-13.86-3.22-17.5,3.5-.86,1.59.05,1.8-1,10-.49,3.86-.87,5.19,0,6,1.34,1.25,3.65-.58,9-1,4.79-.38,5.74.86,7,0,3.53-2.4-3.17-12.49-3-25,.21-15.39,10.77-30.78,19-31,1.44,0,4.22.35,5,2s-.73,3-3,8a72.59,72.59,0,0,0-3,8c-1.34,4.39-.72,4.17-2,8-1.15,3.45-2,4.54-2,7a13.16,13.16,0,0,0,1,5c-.31.12-12.76-21.94-8-26,3-2.54,13.48,1.34,17,7a23.13,23.13,0,0,0,4,5c1.41,1.32,3.78,3.55,5,3,2.44-1.1-3.84-11.51,0-20s16.45-12,18-10c.77,1-1.64,2.8-4,9a58,58,0,0,0-3,13c-1.17,8-.31,9.67-2,11-3.59,2.83-9.74-3-14,0-2.53,1.8-3.48,6.1-2,8,1.27,1.62,4.17,1.31,7,1,6-.65,8.82-3.15,10-2,.95.92-.54,2.87-1,7a21.49,21.49,0,0,0,1,9c-.34.09-14.36-26.38-5-38,6.76-8.39,24-6.94,25-4,.44,1.32-3.76,2.57-6,8a44.52,44.52,0,0,1-2,5c-1.24,2.43-1.82,2.71-2,4-.3,2.18.83,5.08,3,6,1.77.75,3.51-.17,7-2,3.22-1.69,4.83-2.54,5-4,.27-2.29-3.09-5-6-6-1.78-.62-2.66-.34-3-1-1-1.92,4.49-8,7-7,2.66,1-.22,9.09,4,12,2.08,1.43,5.32,1.22,6,0,.92-1.65-3.53-3.94-4-8-.78-6.77,10-14.45,12-13,1.55,1.12-3.16,9.37-2,10,.68.37,2.81-2.17,3-2s-3.95,4.31-3,6c.6,1.06,3,.81,3,1s-4.74,0-5,1,3.7,1.76,4,4-3.43,3.63-3,6c.29,1.6,2.27,2.58,2,3s-1.32-.43-2,0c-.95.6-.34,3,0,5,.42,2.45,1.13,8.42,0,9-1.91,1-15.45-10-15-25,.34-11.2,8.47-22.86,18-24,.64-.08,6.85-.74,10,3,2.18,2.59.79,4.79,0,19-.39,7.09-.21,9.43-1,15-.24,1.7-.56,3.59-1,7-.67,5.18-.93,8.49-1,9-.87,6.78-31.62,26.31-80,21-45.7-5-80.06-28.66-86-20-2.46,3.59,1.91,10-1,24-.56,2.7-1.2,4.74-1,8,.4,6.62,3.54,9.28,2,13-1.38,3.32-5.27,4.47-5,5,.42.83,9.09-3.42,10-2,.49.76-1.75,2.36-4,6-3.27,5.29-3.62,10.07-4,10-1-.18-2.44-8.74,1-11,.66-.43,1.28-.49,9,1a36.93,36.93,0,0,0,10,1c2.22-.14,3.75-.25,4-1,.53-1.61-4.86-6.21-8-5-2.87,1.1-3.42,6.89-4,13-.42,4.47-.22,7.86-1,8s-1.12-4.42-4-6c-4.68-2.56-15.63,3.23-16,10-.13,2.39,1,5.44,3,6,2.33.67,3.46-2.8,8-5,4.07-2,8.71-1.65,18-1,4.54.32,5.33.66,6,0,3.85-3.74-17.36-25.19-14-29,.31-.36.7-.4,6,0,5,.38,9.21.77,12,1a76.73,76.73,0,0,0,12,0c3.09-.24,3.81-.49,4-1,.65-1.81-5.32-7.24-9-6-2,.69-3.06,5.45-5,15-1.12,5.51-1.26,7.52,0,9s3.45,1.71,7,2c2.63.21,4.87,1.09,5.5-.5s-1.9-3.82-4.5-8.5c-3.92-7.05-1.28-19.16,6-23,3.16-1.66,8-2.2,10,0,1.46,1.6.68,3.86-1,15-.35,2.33-.66,4.67-1,7-2.31,15.9-1.92,18.79-3,19-2.59.49-11.29-15-6-20,1.21-1.13,3.17.14,14,1,1.88.15,3,.2,3,0,.08-.37-11,.06-13-4-2.42-4.86,3.62-15.48,12-18,3-.91,7.67-1.14,9,1,1.05,1.69-.57,3.86-2,8-1,2.77-.72,3.19-2,13-1.56,11.94-2,12.15-3,21-.8,7.28-1.28,10.91-1,11,2.57.83,26.6-45.52,13-60-3.77-4-9.3-4.39-9-6,.55-2.93,19.32-4.36,24,3,.71,1.12,2,3.83,1,5s-3.58.12-4,1c-.54,1.14,3.52,3.47,3,5s-4.7.8-5,2,4.27,3.42,4,4c-.15.34-1.61-.52-3,0-1.73.65-1.48,2.73-3,5-2.56,3.85-8,5-8,5a31.55,31.55,0,0,1,10-3c4.1-.45,7.92.21,8,1,.09,1-5.45.82-9,5-.26.31-3.52,4.24-2,7a4.12,4.12,0,0,0,4,2,4.29,4.29,0,0,0,3-2,4.06,4.06,0,0,0,0-4,4.92,4.92,0,0,0-3-2c-4.9-1.39-19.05-15.79-16-24,1.7-4.56,9.8-5.71,26-8,6.52-.92,9.66-.86,11,1,1.54,2.14-.54,4.64-2,14-.07.47-.05.36-1,9-1.31,12-1.43,12.88-2,13-2.12.45-8-10.69-5-14,1.86-2.07,5.73.55,14-1,4.27-.8,4.42-1.69,4.5-1.5,0,0-23,6.34-22.5,11.5.17,1.75,3.2,1.94,4,5,.72,2.76-1.47,3.72-2,8-.46,3.69,1,4.4,1,10,0,3.39,0,5.58-1,6-2,.84-8.8-5.37-9-13-.19-7.27,5.66-11.75,6-12,6.36-4.7,16.15-3.64,18,0,.59,1.17-.11,1.67-1,7a76.05,76.05,0,0,0-1,10c-.17,6.61,1,7.37,0,9-2.59,4.13-14.07,5.33-19-1-3.44-4.42-3.15-11.79,0-14,2.37-1.66,4.88.64,13,1,2.57.11,9.8.21,10-1,.32-1.93-16.84-9.61-22-4-2.25,2.45-2.13,7.35,0,10,1,1.21,1.45.81,12,3,2.88.6,5.76,1.23,9,0a5.65,5.65,0,0,0,2-1c3.44-3.35-5.4-12.77-5-25,.24-7.34,3.83-16.28,9-17,3.11-.43,6.87,2.05,8,5,1.25,3.27-.5,7.73-1,9a14.74,14.74,0,0,0-1,3c-.41,2.11,0,3.13,0,5,.06,4.36-1.94,5.95-1,7s4.25,0,7-1c3.33-1.22,3.7-2.13,7-3,2-.52,2.64-.4,3-1,1.08-1.8-3.75-4.91-5-9-2.71-8.89,11.41-22.85,15-21,1.16.6.79,4.41,0,12-1.22,11.81-2.77,14.35-3,23-.19,7.15.75,9.78,0,10-2.36.7-14.37-24.58-9-29,2.84-2.34,8.15,3.37,20,3,.16,0,3.77-.34,11-1,3.92-.36,5.89-.55,6-1,.44-1.79-10.31-8-14-5-2.67,2.14.93,7-2,16-.77,2.37-1.76,4.32-1,5,.95.84,3.33-1.41,8-3,5.76-2,5.27-1,6.5-2.5,3.27-4.07-7.72-15-4.5-21.5,2.49-5,14.32-5.86,17-2,.74,1.07.49,2.09-1,10-1.19,6.3-1.78,9.45-2,11-1.38,9.82-2.48,11.92-1,14,.66.93,1.91,2.09,2,4,.05,1.05-.24,2.69-1,3-2.94,1.2-15.6-16.5-12-21,1.2-1.51,3.17-.21,15-1a51.62,51.62,0,0,0,8-1,43.83,43.83,0,0,0,9-3"></path>
    </g>
  
</svg>