<svg id="Layer_1" data-name="Layer 1" xmlns="http://www.w3.org/2000/svg" viewBox="0 0 390 844">
              
    <clipPath id="loading_clipPath">
     
     
      <path class="cls-10" d="M195.33,392.89a3.45,3.45,0,0,0-.34-.3,4.85,4.85,0,0,0-.41-.3l-.83.45a2.31,2.31,0,0,0-1.57-.45,2,2,0,0,1-.56-.15,6.12,6.12,0,0,1-.83-.38q-.4-.22-.75-.45c-.22-.15-.31-.27-.26-.37V390a1.7,1.7,0,0,1,.07-.53.29.29,0,0,1,.3-.22v1l.45-.23c0-.2.14-.38.42-.56a3.53,3.53,0,0,0,.56-.41l-.23-.45c-.1,0-.08-.09,0-.27a2.09,2.09,0,0,0,.19-1.08l.22.37a1,1,0,0,0,.57-.33.84.84,0,0,0,.18-.87q-.37-.08-.48.15t-.27.45a.58.58,0,0,1-.26-.3.72.72,0,0,0-.19-.3c-.1.1-.22.24-.37.41s-.28.32-.38.42h-.22a1.09,1.09,0,0,1,.3-.72,1,1,0,0,0,.3-.71c.05.1.11.13.19.08a1.35,1.35,0,0,0,.26-.27,2.57,2.57,0,0,1,.41-.37,1.24,1.24,0,0,1,.71-.19,5.12,5.12,0,0,1-.26.49,1,1,0,0,0-.11.49,1.26,1.26,0,0,0,.67-1.17,1.49,1.49,0,0,1,.53-1.23l-.23-.6a1.89,1.89,0,0,1,.42-1,5.68,5.68,0,0,0,.56-1,.56.56,0,0,1-.23.07.67.67,0,0,1-.3.08c-.15-.3-.35-.43-.6-.38a2,2,0,0,1,.38-1,2.65,2.65,0,0,0,.37-1.43,7.16,7.16,0,0,0-1,0,1.13,1.13,0,0,0-.34.34c-.15-.1-.22-.2-.22-.3v-.3l1.57-1.58.23.23c.1-.1.15-.16.15-.19v-.41a1.19,1.19,0,0,0-.75.15h-.23a2.54,2.54,0,0,1,.23-.68,2.35,2.35,0,0,0,.22-.67,2.19,2.19,0,0,1,.27-.86,3.82,3.82,0,0,0,.26-1.54l-.45.22a.69.69,0,0,1,.34-.37,1.35,1.35,0,0,0,.33-.19,1.33,1.33,0,0,0,.27-.26,1,1,0,0,0,.11-.53,1.76,1.76,0,0,1-.23.38.83.83,0,0,1-.22.15h-.15a1.14,1.14,0,0,1,.19-.49,1.28,1.28,0,0,0,.18-.49,7.71,7.71,0,0,0,1.84-2.85,7.11,7.11,0,0,0,.34-1.72l-.38.22v-.45c.2-.4.42-.82.64-1.27a3.24,3.24,0,0,0,.34-1.5,16.26,16.26,0,0,1,1.09-2.89c.37-.72,1.21-1.09,2.51-1.09l.22.23a1.85,1.85,0,0,0,.75.3q.6.15.6.3.08-.15.45,0a3.88,3.88,0,0,1,.83.48c.3.23.59.47.86.72a1.68,1.68,0,0,1,.49.6v2.4a3,3,0,0,1-.38.15c-.15.05-.17.12-.07.22q-.15.6-.3,1.05a8.82,8.82,0,0,1-.38.94,2.64,2.64,0,0,1-.52.79,1.32,1.32,0,0,0-.41.86,3.37,3.37,0,0,1-.12.71l.15.23a2.86,2.86,0,0,0-.63,1.5,1.84,1.84,0,0,1-.34,1.05h.6v.45a10,10,0,0,0,1.2.64,1.43,1.43,0,0,1,.75.56,1.49,1.49,0,0,1,.82.45l1.09.93c.38.33.72.64,1.05.94a1.38,1.38,0,0,0,.86.45l.72.75c.37.4.81.83,1.31,1.28a18.44,18.44,0,0,0,1.46,1.2,2.18,2.18,0,0,0,1.09.52l-.23.68c0,.2-.11.29-.33.26s-.32,0-.27.11v.6l-.15.15-.52,0c-.3,0-.64,0-1,0a7.66,7.66,0,0,1-1.09-.08,1.08,1.08,0,0,1-.75-.37c-.45-.2-.83-.38-1.13-.53a6.31,6.31,0,0,1-.9-.56c-.3-.23-.63-.5-1-.82s-.84-.77-1.39-1.32a12.88,12.88,0,0,0-1.61-.9,4,4,0,0,1-1.54-1.27l-1.35,1.8a2.45,2.45,0,0,0,.15.6.34.34,0,0,0-.18.26.68.68,0,0,1-.19.34c.05,0,0,.12-.26.37a5.22,5.22,0,0,0-.49.6l.15.38a.77.77,0,0,1-.08.45c0,.05-.07.17-.07.37l.15.23a1.19,1.19,0,0,0-.26.52,4.53,4.53,0,0,1-.19.53,1,1,0,0,1-.45.45c-.2.1-.3.37-.3.82l.22.23c0,.3-.12.63-.22,1a3.92,3.92,0,0,0-.15,1l.15.15q-.3.45-.15.6a2.87,2.87,0,0,1-.26.53c-.08.1-.07.27,0,.52a5.36,5.36,0,0,1,0,.75,1.48,1.48,0,0,1-.19.38l-.15,1,.6.37c-.15,0-.35.13-.6.38.3,0,.47.07.52.22a1,1,0,0,0,.23.38c.1.25.07.4-.08.45a2.41,2.41,0,0,1-.56.11,2.05,2.05,0,0,0-.64.19c-.2.1-.3.32-.3.67-.2,0-.28,0-.26-.11s0-.16-.11-.26Zm-4.58-4.2-.15.22v-.22Zm1.65-9.3a.62.62,0,0,1-.11.67c-.17.25-.21.43-.11.53s-.08.22-.23.37-.27.23-.37.23a4.54,4.54,0,0,0,.37-1.47Q192,379.24,192.4,379.39Zm-.22,8.92c-.05.15,0,.28.22.38l.15-.38Zm.37-5.77-.15.37v-.6Zm.45-5.78c.05,0,.08.08.08.23s0,.15-.08.15a.13.13,0,0,1-.15-.15C192.85,376.84,192.9,376.76,193,376.76Zm.15,1.43-.07-.15c-.05,0-.08,0-.08.15s0,.15.08.15A.21.21,0,0,0,193.15,378.19Zm0,1.8a.31.31,0,0,1,0,.18.78.78,0,0,0-.12.19v-.6Zm0,1.57a.35.35,0,0,0,.19.19c.08,0,.09.09,0,.19h-.23Zm.45,6.38a2.86,2.86,0,0,0,.12-.27,1.31,1.31,0,0,0,0-.33l-.37.37Zm.38-8.18h.15v-.22Zm.37,7.2c0,.55,0,.77.12.64a3.29,3.29,0,0,0,.48-.9c.2-.47.42-1,.64-1.69s.41-1.2.56-1.65a.79.79,0,0,0-.11-.67,7,7,0,0,0-.49-.53l-.22.38a1.61,1.61,0,0,0,0,.56l.41.64-.45.37a.22.22,0,0,0-.11.27,1.9,1.9,0,0,1,0,.48,2.43,2.43,0,0,1-.19.64,1.57,1.57,0,0,1-.68.64.88.88,0,0,1,.19.26,1,1,0,0,1,0,.34Zm25.13,17.63c0-1.3,0-2.63-.11-4s-.12-2.35-.12-3a15.55,15.55,0,0,1,.12-1.83c.07-.68.11-1.19.11-1.54a6.75,6.75,0,0,0-1.58.15,3.83,3.83,0,0,0-1.05.41c-.3.18-.61.37-.93.6a6.76,6.76,0,0,1-1.24.64H212.5a6.67,6.67,0,0,1-1.38-.12,3,3,0,0,1-1-.37,6.37,6.37,0,0,1-1-.71l.22-.23c-.1,0-.22-.1-.37-.3a.93.93,0,0,1-.23-.45v-.22a3.64,3.64,0,0,1,.23-1.05c.15-.45.27-.7.37-.75h1.35a36.23,36.23,0,0,1,4.35-1.35,20.89,20.89,0,0,0,4.43-1.65h4.8l1.57.45a4.07,4.07,0,0,0,.23.63c.15.38.17.62.07.72l-.15-.15c-.05.55-.08.91-.11,1.09s.09.26.34.26a10.45,10.45,0,0,1-.41,3.45,2.17,2.17,0,0,0-.19,1.57,4.77,4.77,0,0,1-.23.86,2.67,2.67,0,0,1-.37.87V404a2.76,2.76,0,0,1-.38,1.54,2.14,2.14,0,0,0-.37,1.23h-.45l-.23.83a1.7,1.7,0,0,1-.52-.15l-.79-.3a5.68,5.68,0,0,0-.75-.23.51.51,0,0,0-.49.08.35.35,0,0,0-.26-.34,4.49,4.49,0,0,1-.56-.3,1.69,1.69,0,0,1-.53-.56A2.43,2.43,0,0,1,219.48,404.59ZM219,384.86a1.25,1.25,0,0,1,.11-.41,1,1,0,0,0,.11-.41,1.25,1.25,0,0,1-.18-.6c0-.25,0-.49-.08-.72a1.69,1.69,0,0,0-.19-.6.64.64,0,0,0-.6-.26,1.77,1.77,0,0,0,.38-.78,4,4,0,0,1,.22-.79c.15-.05.28-.36.38-.94s.2-1.25.3-2,.23-1.58.41-2.41a7.85,7.85,0,0,1,.71-2.06q.08-1-.15-1.08c-.15,0-.17-.14-.07-.34h.22a9.51,9.51,0,0,1,.19-1.2c.08-.3.14-.59.19-.86l.15-.83a7.62,7.62,0,0,0,.07-1.24,6.44,6.44,0,0,1,.23-1.61c.15-.57.31-1.15.49-1.73l.45-1.53a2,2,0,0,0,0-1.13c.25-.65.45-1.19.6-1.61s.29-.84.42-1.24a3.85,3.85,0,0,0,.18-.75c0-.6,0-1.15.08-1.65a1,1,0,0,1,.9-.9,1.13,1.13,0,0,0,.52.12c.3,0,.45.11.45.26h3.6c.65.3.89.63.72,1a5,5,0,0,0-.34,1.76,4.21,4.21,0,0,0-.15.94,4.4,4.4,0,0,1,0,.64,2.2,2.2,0,0,1-.15.6,5.56,5.56,0,0,1-.41.82h.15c-.35,1.05-.61,1.85-.79,2.4s-.31.94-.41,1.17a1.73,1.73,0,0,1-.23.41.83.83,0,0,0-.15.22v1.58c-.25,0-.38.07-.41.22a.66.66,0,0,1-.19.38l.23.22a7.34,7.34,0,0,0-.45.75,1.14,1.14,0,0,1-.38.45c.35.1.55.23.6.38a.93.93,0,0,1-.3.67c-.15.1-.17.28-.07.53h.37a.51.51,0,0,0-.33.37,2,2,0,0,0,0,.38l-.3,4.05c0,.05-.05.34-.15.86s-.2,1.1-.3,1.73-.19,1.23-.26,1.83a2.41,2.41,0,0,0,0,1.2h.23a2.3,2.3,0,0,1-.15.79.93.93,0,0,1-.45.56l-1.13,3.45a3.44,3.44,0,0,1-1-.26c-.1-.07-.28-.06-.53,0v-.6a.59.59,0,0,0-.41.49,3,3,0,0,1-.19.71c-.1-.2-.22-.28-.37-.23s-.13.09-.23,0a3.15,3.15,0,0,0-.45-.45,3.54,3.54,0,0,0-.71-.49A2.07,2.07,0,0,0,219,384.86Zm1.35-12.37h-.15l.15-.23Zm.45-4c-.05,0-.08,0-.08-.07a.22.22,0,0,1,.08-.15c0-.05,0-.08.07-.08l.08.08C221,368.44,220.93,368.51,220.83,368.51Zm2.55,16.8c.15.05.27,0,.37-.22h-.37Zm2.32-9.82c0-.05,0-.08-.07-.08s-.23.1-.23.3h.08A.19.19,0,0,0,225.7,375.49Zm3.23-15.15c-.1,0-.15.07-.15.22a.15.15,0,0,0,.3,0C229.08,360.41,229,360.34,228.93,360.34Z"></path>
     
    </clipPath>
    <g class="loading_g">
      <path clip-path="url(#loading_clipPath)" stroke="rgb(245, 204, 125)" fill="none" stroke-width="12" d="M110.5,363.5a51.92,51.92,0,0,0,9,0c4.27-.37,6-1.05,7,0,1.28,1.39-.54,3.95-2,10-1.69,7-.62,9.31-2,10-4,2-18.89-14.63-16-19,1.59-2.4,7.28.79,24,1,6.16.08,10,.13,10,0s-18.59-4-23,3c-1.34,2.14-1.41,5.33,0,7,1.77,2.09,4.85.57,16,0,5.21-.27,6.37,0,7-1,2.21-3.43-9.65-10.73-8-18,1.47-6.48,13.19-10.69,16-8,.37.35.85,1.08-1,10-2.32,11.17-3.45,11.91-3,16,.31,2.76,1.5,5.5-3.5,4.5-1.39-.28,2.27-.2,2-1-5.93-17.75-30-3.06-32.5,3.5-1,2.6,1.21,6.52,4,8s5,.09,14-2c9.63-2.25,12.09-2.26,13-1,.5.7.34,2.13,0,5s-.49,4.18-1,5c-1.47,2.35-3.82,1.77-9,5-2.13,1.33-3,2.1-3,3,.06,1.41,2.27,2.59,4,3,2.35.56,3.83-.27,7-1,5.57-1.29,7.07-.13,8-1,4.55-4.25-29.14-33.92-23-52s53.86-17.19,55-13c.33,1.23-3,3.8-2,6,.56,1.2,2.13,1.66,2,2-.19.51-3.66-.68-4,0s3.42,2.95,3,4-3.68.11-4,1,2.27,2,2,3c-.2.76-1.92.85-3,1-5.16.7-9.24,4.39-9,5s4.36-1.09,12-2c3.85-.46,7.87-.64,8,0s-4.9,1.68-10,6a9.49,9.49,0,0,0-3,4c-.27.72-1.27,3.43,0,5,1.74,2.17,7.11,1.38,8-1,.69-1.84-1.18-4.89-3-5-3.08-.18-7.1,8-5,11,.72,1,2.1,1.34,2,2-.17,1.07-3.9,1-4,2-.07.7,1.89,1,2,2,.15,1.26-3,2.58-4,3-7,3-13.37,8.09-13,9,.29.7,4.88-.23,9-2,4.75-2.05,4-3.13,7-4,5.2-1.5,5.48,2.24,12.5.5,1.87-.47,2-1,2-1-.09-.95-13.86-3.22-17.5,3.5-.86,1.59.05,1.8-1,10-.49,3.86-.87,5.19,0,6,1.34,1.25,3.65-.58,9-1,4.79-.38,5.74.86,7,0,3.53-2.4-3.17-12.49-3-25,.21-15.39,10.77-30.78,19-31,1.44,0,4.22.35,5,2s-.73,3-3,8a72.59,72.59,0,0,0-3,8c-1.34,4.39-.72,4.17-2,8-1.15,3.45-2,4.54-2,7a13.16,13.16,0,0,0,1,5c-.31.12-12.76-21.94-8-26,3-2.54,13.48,1.34,17,7a23.13,23.13,0,0,0,4,5c1.41,1.32,3.78,3.55,5,3,2.44-1.1-3.84-11.51,0-20s16.45-12,18-10c.77,1-1.64,2.8-4,9a58,58,0,0,0-3,13c-1.17,8-.31,9.67-2,11-3.59,2.83-9.74-3-14,0-2.53,1.8-3.48,6.1-2,8,1.27,1.62,4.17,1.31,7,1,6-.65,8.82-3.15,10-2,.95.92-.54,2.87-1,7a21.49,21.49,0,0,0,1,9c-.34.09-14.36-26.38-5-38,6.76-8.39,24-6.94,25-4,.44,1.32-3.76,2.57-6,8a44.52,44.52,0,0,1-2,5c-1.24,2.43-1.82,2.71-2,4-.3,2.18.83,5.08,3,6,1.77.75,3.51-.17,7-2,3.22-1.69,4.83-2.54,5-4,.27-2.29-3.09-5-6-6-1.78-.62-2.66-.34-3-1-1-1.92,4.49-8,7-7,2.66,1-.22,9.09,4,12,2.08,1.43,5.32,1.22,6,0,.92-1.65-3.53-3.94-4-8-.78-6.77,10-14.45,12-13,1.55,1.12-3.16,9.37-2,10,.68.37,2.81-2.17,3-2s-3.95,4.31-3,6c.6,1.06,3,.81,3,1s-4.74,0-5,1,3.7,1.76,4,4-3.43,3.63-3,6c.29,1.6,2.27,2.58,2,3s-1.32-.43-2,0c-.95.6-.34,3,0,5,.42,2.45,1.13,8.42,0,9-1.91,1-15.45-10-15-25,.34-11.2,8.47-22.86,18-24,.64-.08,6.85-.74,10,3,2.18,2.59.79,4.79,0,19-.39,7.09-.21,9.43-1,15-.24,1.7-.56,3.59-1,7-.67,5.18-.93,8.49-1,9-.87,6.78-31.62,26.31-80,21-45.7-5-80.06-28.66-86-20-2.46,3.59,1.91,10-1,24-.56,2.7-1.2,4.74-1,8,.4,6.62,3.54,9.28,2,13-1.38,3.32-5.27,4.47-5,5,.42.83,9.09-3.42,10-2,.49.76-1.75,2.36-4,6-3.27,5.29-3.62,10.07-4,10-1-.18-2.44-8.74,1-11,.66-.43,1.28-.49,9,1a36.93,36.93,0,0,0,10,1c2.22-.14,3.75-.25,4-1,.53-1.61-4.86-6.21-8-5-2.87,1.1-3.42,6.89-4,13-.42,4.47-.22,7.86-1,8s-1.12-4.42-4-6c-4.68-2.56-15.63,3.23-16,10-.13,2.39,1,5.44,3,6,2.33.67,3.46-2.8,8-5,4.07-2,8.71-1.65,18-1,4.54.32,5.33.66,6,0,3.85-3.74-17.36-25.19-14-29,.31-.36.7-.4,6,0,5,.38,9.21.77,12,1a76.73,76.73,0,0,0,12,0c3.09-.24,3.81-.49,4-1,.65-1.81-5.32-7.24-9-6-2,.69-3.06,5.45-5,15-1.12,5.51-1.26,7.52,0,9s3.45,1.71,7,2c2.63.21,4.87,1.09,5.5-.5s-1.9-3.82-4.5-8.5c-3.92-7.05-1.28-19.16,6-23,3.16-1.66,8-2.2,10,0,1.46,1.6.68,3.86-1,15-.35,2.33-.66,4.67-1,7-2.31,15.9-1.92,18.79-3,19-2.59.49-11.29-15-6-20,1.21-1.13,3.17.14,14,1,1.88.15,3,.2,3,0,.08-.37-11,.06-13-4-2.42-4.86,3.62-15.48,12-18,3-.91,7.67-1.14,9,1,1.05,1.69-.57,3.86-2,8-1,2.77-.72,3.19-2,13-1.56,11.94-2,12.15-3,21-.8,7.28-1.28,10.91-1,11,2.57.83,26.6-45.52,13-60-3.77-4-9.3-4.39-9-6,.55-2.93,19.32-4.36,24,3,.71,1.12,2,3.83,1,5s-3.58.12-4,1c-.54,1.14,3.52,3.47,3,5s-4.7.8-5,2,4.27,3.42,4,4c-.15.34-1.61-.52-3,0-1.73.65-1.48,2.73-3,5-2.56,3.85-8,5-8,5a31.55,31.55,0,0,1,10-3c4.1-.45,7.92.21,8,1,.09,1-5.45.82-9,5-.26.31-3.52,4.24-2,7a4.12,4.12,0,0,0,4,2,4.29,4.29,0,0,0,3-2,4.06,4.06,0,0,0,0-4,4.92,4.92,0,0,0-3-2c-4.9-1.39-19.05-15.79-16-24,1.7-4.56,9.8-5.71,26-8,6.52-.92,9.66-.86,11,1,1.54,2.14-.54,4.64-2,14-.07.47-.05.36-1,9-1.31,12-1.43,12.88-2,13-2.12.45-8-10.69-5-14,1.86-2.07,5.73.55,14-1,4.27-.8,4.42-1.69,4.5-1.5,0,0-23,6.34-22.5,11.5.17,1.75,3.2,1.94,4,5,.72,2.76-1.47,3.72-2,8-.46,3.69,1,4.4,1,10,0,3.39,0,5.58-1,6-2,.84-8.8-5.37-9-13-.19-7.27,5.66-11.75,6-12,6.36-4.7,16.15-3.64,18,0,.59,1.17-.11,1.67-1,7a76.05,76.05,0,0,0-1,10c-.17,6.61,1,7.37,0,9-2.59,4.13-14.07,5.33-19-1-3.44-4.42-3.15-11.79,0-14,2.37-1.66,4.88.64,13,1,2.57.11,9.8.21,10-1,.32-1.93-16.84-9.61-22-4-2.25,2.45-2.13,7.35,0,10,1,1.21,1.45.81,12,3,2.88.6,5.76,1.23,9,0a5.65,5.65,0,0,0,2-1c3.44-3.35-5.4-12.77-5-25,.24-7.34,3.83-16.28,9-17,3.11-.43,6.87,2.05,8,5,1.25,3.27-.5,7.73-1,9a14.74,14.74,0,0,0-1,3c-.41,2.11,0,3.13,0,5,.06,4.36-1.94,5.95-1,7s4.25,0,7-1c3.33-1.22,3.7-2.13,7-3,2-.52,2.64-.4,3-1,1.08-1.8-3.75-4.91-5-9-2.71-8.89,11.41-22.85,15-21,1.16.6.79,4.41,0,12-1.22,11.81-2.77,14.35-3,23-.19,7.15.75,9.78,0,10-2.36.7-14.37-24.58-9-29,2.84-2.34,8.15,3.37,20,3,.16,0,3.77-.34,11-1,3.92-.36,5.89-.55,6-1,.44-1.79-10.31-8-14-5-2.67,2.14.93,7-2,16-.77,2.37-1.76,4.32-1,5,.95.84,3.33-1.41,8-3,5.76-2,5.27-1,6.5-2.5,3.27-4.07-7.72-15-4.5-21.5,2.49-5,14.32-5.86,17-2,.74,1.07.49,2.09-1,10-1.19,6.3-1.78,9.45-2,11-1.38,9.82-2.48,11.92-1,14,.66.93,1.91,2.09,2,4,.05,1.05-.24,2.69-1,3-2.94,1.2-15.6-16.5-12-21,1.2-1.51,3.17-.21,15-1a51.62,51.62,0,0,0,8-1,43.83,43.83,0,0,0,9-3"></path>
    </g>
  
</svg>