<svg id="Layer_1" data-name="Layer 1" xmlns="http://www.w3.org/2000/svg" viewBox="0 0 390 844">
              
    <clipPath id="loading_clipPath">
      
      
      
      <path class="cls-10" d="M229.23,384.71a3.6,3.6,0,0,1,.07-.63c0-.28.12-.59.19-.94s.14-.66.19-.94a3.7,3.7,0,0,0,.07-.64,2.81,2.81,0,0,1,.27-1,2.92,2.92,0,0,0,.26-1,5.15,5.15,0,0,1,.52-2,12.55,12.55,0,0,1,.53-1.2c.15-.25.36-.64.64-1.17s.58-1.07.93-1.64l.94-1.54a5.12,5.12,0,0,1,.64-.9,14.08,14.08,0,0,0,1.05-1.24c.45-.57.8-.86,1.05-.86h1a2,2,0,0,1,1.05.52,2,2,0,0,0,1,.53.89.89,0,0,1,.45.26,3.88,3.88,0,0,1,.52.56l.6.75a3,3,0,0,0,.23.6,2.35,2.35,0,0,1,.3,1v1.05a.85.85,0,0,0,.3.3,1.21,1.21,0,0,0,.75.22h.52a1.87,1.87,0,0,0,.68.49,10.49,10.49,0,0,0,1.12.49l1.35.6c.15.15.43.4.83.75s.8.72,1.2,1.12l2.17.08,3.45-.3.53-.53c.15-.15.31-.3.49-.45l.41-.37a6.76,6.76,0,0,1,.52-.75c.15-.2.3-.41.45-.64a3.69,3.69,0,0,1,.38-.49c.45-.7.81-1.31,1.09-1.84a14.79,14.79,0,0,0,.78-1.83,3.76,3.76,0,0,1,.23-1.13c.05-.2.12-.45.22-.75v-.45l-.6-2.55.45-.9.75.08.75-.75H263l.9-.53h1.87v14.78l-.45.52c-.15.8-.32,1.55-.52,2.25s-.32,1.2-.49,1.8-.31,1.08-.41,1.43v1.42l.45.45v.45l-.45.45a1.7,1.7,0,0,0-.23.53,2,2,0,0,0-.22.9v.45l.9.45-.9.9v1a2.57,2.57,0,0,0,.45,1.13,2.54,2.54,0,0,1,.45,1.12v.53l-.45.45-.45,2.25a2.36,2.36,0,0,1-.15.67c-.1.3-.2.63-.3,1s-.2.67-.3,1a2.41,2.41,0,0,0-.15.68h-.45a1.58,1.58,0,0,0-.68-.45l-1.16-.49c-.42-.17-.81-.35-1.16-.53a2.88,2.88,0,0,1-.68-.41,4.23,4.23,0,0,1-.48-1.61,4.48,4.48,0,0,0-.49-1.61,4,4,0,0,0-.08-.56c-.05-.28-.1-.54-.15-.79a5.64,5.64,0,0,1-.22-1V384h-4.8l-1.43-.15v.3l-.52,1.05-1,1.05c-.15.15-.37.33-.64.56l-.94.75c-.35.28-.66.52-.93.75s-.49.41-.64.56a5.7,5.7,0,0,1-.6.53,1.46,1.46,0,0,1-1,.52l-1,.53a2,2,0,0,1-.71.41,8.78,8.78,0,0,1-1.09.34,6.55,6.55,0,0,1-1.35.3h-4.2a2.69,2.69,0,0,1-.82-.26c-.4-.18-.83-.38-1.28-.61s-.87-.45-1.27-.67a4,4,0,0,1-.83-.56l-2.1-2.1-.52-1Zm7.87,2.1h.53a7,7,0,0,1,1-.48l1.28-.57c.42-.2.81-.38,1.16-.56a2.84,2.84,0,0,0,.75-.49l1-1,.52-1.05v-.52l-3.67-3.6h-1a.85.85,0,0,0-.3.3,1.45,1.45,0,0,0-.23.75,5.8,5.8,0,0,0-.48,1.16c-.18.52-.34,1.09-.49,1.69s-.29,1.16-.41,1.69a5.27,5.27,0,0,0-.19,1.16Zm29.33,4.5c.25,0,.37.09.37.27s-.12.26-.37.26-.38-.09-.38-.26S266.18,391.31,266.43,391.31Zm.67,9.38a6.36,6.36,0,0,0-.18-1.77,2.31,2.31,0,0,1,.18-1.53,1.9,1.9,0,0,1,.23-.83,4.8,4.8,0,0,1,.3-.52v-1.88a4.91,4.91,0,0,1,.07-.63c.05-.33.1-.68.15-1.06s.1-.73.15-1.08a6.6,6.6,0,0,0,.08-.9,15.87,15.87,0,0,1,.22-1.69c.15-.92.3-1.9.45-2.92s.3-2,.45-2.89a14.81,14.81,0,0,0,.23-1.73v-1.35a11.44,11.44,0,0,1,.22-1.61,12.28,12.28,0,0,0,.23-1.61,3.18,3.18,0,0,1,.15-.75c.1-.35.21-.73.34-1.13s.23-.77.33-1.12a3.18,3.18,0,0,0,.15-.75v-1.8c0-.1,0-.5.08-1.2s.1-1.45.15-2.25.1-1.55.15-2.25.07-1.13.07-1.28v-1.8l.45-.9h2.33a1.64,1.64,0,0,0,.52.23,1.87,1.87,0,0,0,.83.22.67.67,0,0,1,.3.08l.3.15a1.15,1.15,0,0,0,.3.22l.45.9.6.9.75-.67-.3,2v1c0,.1,0,.4-.08.9s-.11,1.05-.18,1.65-.14,1.15-.19,1.65-.08.8-.08.9c0,.25,0,.75-.07,1.5s-.11,1.55-.19,2.4-.14,1.66-.19,2.43-.07,1.29-.07,1.54,0,.34-.08.71-.1.78-.15,1.21l-.15,1.27a8.73,8.73,0,0,0-.07.94,7.83,7.83,0,0,1-.23,1.38,7.71,7.71,0,0,0-.22,1.39v2.33l-.45,1.8v2.77a12.35,12.35,0,0,1-.23,1.62,11.44,11.44,0,0,0-.22,1.61l-.45,1.87.45.9-.9.9a1.42,1.42,0,0,1,.45.08q.45.15.45.45l-.45,1.35v.9l-.45.45-.83-.75-.67-.3-.23.67q-.37-.37-.48-.18a1,1,0,0,0-.12.56l-.45.52-1-1-.9-.45h-.9l-.9-.9Zm2.33-9.75a1.64,1.64,0,0,0-.23.52,2,2,0,0,0-.22.9v.9a3.21,3.21,0,0,0,.64-1,3.42,3.42,0,0,0,.26-1.35v-.45ZM269,396l.45.45h.45v-3.23l-.45.45v.45l-.45,1Zm0,1.87h.45l.45-.52Z"></path>
      
    </clipPath>
    <g class="loading_g">
      <path clip-path="url(#loading_clipPath)" stroke="rgb(245, 204, 125)" fill="none" stroke-width="12" d="M110.5,363.5a51.92,51.92,0,0,0,9,0c4.27-.37,6-1.05,7,0,1.28,1.39-.54,3.95-2,10-1.69,7-.62,9.31-2,10-4,2-18.89-14.63-16-19,1.59-2.4,7.28.79,24,1,6.16.08,10,.13,10,0s-18.59-4-23,3c-1.34,2.14-1.41,5.33,0,7,1.77,2.09,4.85.57,16,0,5.21-.27,6.37,0,7-1,2.21-3.43-9.65-10.73-8-18,1.47-6.48,13.19-10.69,16-8,.37.35.85,1.08-1,10-2.32,11.17-3.45,11.91-3,16,.31,2.76,1.5,5.5-3.5,4.5-1.39-.28,2.27-.2,2-1-5.93-17.75-30-3.06-32.5,3.5-1,2.6,1.21,6.52,4,8s5,.09,14-2c9.63-2.25,12.09-2.26,13-1,.5.7.34,2.13,0,5s-.49,4.18-1,5c-1.47,2.35-3.82,1.77-9,5-2.13,1.33-3,2.1-3,3,.06,1.41,2.27,2.59,4,3,2.35.56,3.83-.27,7-1,5.57-1.29,7.07-.13,8-1,4.55-4.25-29.14-33.92-23-52s53.86-17.19,55-13c.33,1.23-3,3.8-2,6,.56,1.2,2.13,1.66,2,2-.19.51-3.66-.68-4,0s3.42,2.95,3,4-3.68.11-4,1,2.27,2,2,3c-.2.76-1.92.85-3,1-5.16.7-9.24,4.39-9,5s4.36-1.09,12-2c3.85-.46,7.87-.64,8,0s-4.9,1.68-10,6a9.49,9.49,0,0,0-3,4c-.27.72-1.27,3.43,0,5,1.74,2.17,7.11,1.38,8-1,.69-1.84-1.18-4.89-3-5-3.08-.18-7.1,8-5,11,.72,1,2.1,1.34,2,2-.17,1.07-3.9,1-4,2-.07.7,1.89,1,2,2,.15,1.26-3,2.58-4,3-7,3-13.37,8.09-13,9,.29.7,4.88-.23,9-2,4.75-2.05,4-3.13,7-4,5.2-1.5,5.48,2.24,12.5.5,1.87-.47,2-1,2-1-.09-.95-13.86-3.22-17.5,3.5-.86,1.59.05,1.8-1,10-.49,3.86-.87,5.19,0,6,1.34,1.25,3.65-.58,9-1,4.79-.38,5.74.86,7,0,3.53-2.4-3.17-12.49-3-25,.21-15.39,10.77-30.78,19-31,1.44,0,4.22.35,5,2s-.73,3-3,8a72.59,72.59,0,0,0-3,8c-1.34,4.39-.72,4.17-2,8-1.15,3.45-2,4.54-2,7a13.16,13.16,0,0,0,1,5c-.31.12-12.76-21.94-8-26,3-2.54,13.48,1.34,17,7a23.13,23.13,0,0,0,4,5c1.41,1.32,3.78,3.55,5,3,2.44-1.1-3.84-11.51,0-20s16.45-12,18-10c.77,1-1.64,2.8-4,9a58,58,0,0,0-3,13c-1.17,8-.31,9.67-2,11-3.59,2.83-9.74-3-14,0-2.53,1.8-3.48,6.1-2,8,1.27,1.62,4.17,1.31,7,1,6-.65,8.82-3.15,10-2,.95.92-.54,2.87-1,7a21.49,21.49,0,0,0,1,9c-.34.09-14.36-26.38-5-38,6.76-8.39,24-6.94,25-4,.44,1.32-3.76,2.57-6,8a44.52,44.52,0,0,1-2,5c-1.24,2.43-1.82,2.71-2,4-.3,2.18.83,5.08,3,6,1.77.75,3.51-.17,7-2,3.22-1.69,4.83-2.54,5-4,.27-2.29-3.09-5-6-6-1.78-.62-2.66-.34-3-1-1-1.92,4.49-8,7-7,2.66,1-.22,9.09,4,12,2.08,1.43,5.32,1.22,6,0,.92-1.65-3.53-3.94-4-8-.78-6.77,10-14.45,12-13,1.55,1.12-3.16,9.37-2,10,.68.37,2.81-2.17,3-2s-3.95,4.31-3,6c.6,1.06,3,.81,3,1s-4.74,0-5,1,3.7,1.76,4,4-3.43,3.63-3,6c.29,1.6,2.27,2.58,2,3s-1.32-.43-2,0c-.95.6-.34,3,0,5,.42,2.45,1.13,8.42,0,9-1.91,1-15.45-10-15-25,.34-11.2,8.47-22.86,18-24,.64-.08,6.85-.74,10,3,2.18,2.59.79,4.79,0,19-.39,7.09-.21,9.43-1,15-.24,1.7-.56,3.59-1,7-.67,5.18-.93,8.49-1,9-.87,6.78-31.62,26.31-80,21-45.7-5-80.06-28.66-86-20-2.46,3.59,1.91,10-1,24-.56,2.7-1.2,4.74-1,8,.4,6.62,3.54,9.28,2,13-1.38,3.32-5.27,4.47-5,5,.42.83,9.09-3.42,10-2,.49.76-1.75,2.36-4,6-3.27,5.29-3.62,10.07-4,10-1-.18-2.44-8.74,1-11,.66-.43,1.28-.49,9,1a36.93,36.93,0,0,0,10,1c2.22-.14,3.75-.25,4-1,.53-1.61-4.86-6.21-8-5-2.87,1.1-3.42,6.89-4,13-.42,4.47-.22,7.86-1,8s-1.12-4.42-4-6c-4.68-2.56-15.63,3.23-16,10-.13,2.39,1,5.44,3,6,2.33.67,3.46-2.8,8-5,4.07-2,8.71-1.65,18-1,4.54.32,5.33.66,6,0,3.85-3.74-17.36-25.19-14-29,.31-.36.7-.4,6,0,5,.38,9.21.77,12,1a76.73,76.73,0,0,0,12,0c3.09-.24,3.81-.49,4-1,.65-1.81-5.32-7.24-9-6-2,.69-3.06,5.45-5,15-1.12,5.51-1.26,7.52,0,9s3.45,1.71,7,2c2.63.21,4.87,1.09,5.5-.5s-1.9-3.82-4.5-8.5c-3.92-7.05-1.28-19.16,6-23,3.16-1.66,8-2.2,10,0,1.46,1.6.68,3.86-1,15-.35,2.33-.66,4.67-1,7-2.31,15.9-1.92,18.79-3,19-2.59.49-11.29-15-6-20,1.21-1.13,3.17.14,14,1,1.88.15,3,.2,3,0,.08-.37-11,.06-13-4-2.42-4.86,3.62-15.48,12-18,3-.91,7.67-1.14,9,1,1.05,1.69-.57,3.86-2,8-1,2.77-.72,3.19-2,13-1.56,11.94-2,12.15-3,21-.8,7.28-1.28,10.91-1,11,2.57.83,26.6-45.52,13-60-3.77-4-9.3-4.39-9-6,.55-2.93,19.32-4.36,24,3,.71,1.12,2,3.83,1,5s-3.58.12-4,1c-.54,1.14,3.52,3.47,3,5s-4.7.8-5,2,4.27,3.42,4,4c-.15.34-1.61-.52-3,0-1.73.65-1.48,2.73-3,5-2.56,3.85-8,5-8,5a31.55,31.55,0,0,1,10-3c4.1-.45,7.92.21,8,1,.09,1-5.45.82-9,5-.26.31-3.52,4.24-2,7a4.12,4.12,0,0,0,4,2,4.29,4.29,0,0,0,3-2,4.06,4.06,0,0,0,0-4,4.92,4.92,0,0,0-3-2c-4.9-1.39-19.05-15.79-16-24,1.7-4.56,9.8-5.71,26-8,6.52-.92,9.66-.86,11,1,1.54,2.14-.54,4.64-2,14-.07.47-.05.36-1,9-1.31,12-1.43,12.88-2,13-2.12.45-8-10.69-5-14,1.86-2.07,5.73.55,14-1,4.27-.8,4.42-1.69,4.5-1.5,0,0-23,6.34-22.5,11.5.17,1.75,3.2,1.94,4,5,.72,2.76-1.47,3.72-2,8-.46,3.69,1,4.4,1,10,0,3.39,0,5.58-1,6-2,.84-8.8-5.37-9-13-.19-7.27,5.66-11.75,6-12,6.36-4.7,16.15-3.64,18,0,.59,1.17-.11,1.67-1,7a76.05,76.05,0,0,0-1,10c-.17,6.61,1,7.37,0,9-2.59,4.13-14.07,5.33-19-1-3.44-4.42-3.15-11.79,0-14,2.37-1.66,4.88.64,13,1,2.57.11,9.8.21,10-1,.32-1.93-16.84-9.61-22-4-2.25,2.45-2.13,7.35,0,10,1,1.21,1.45.81,12,3,2.88.6,5.76,1.23,9,0a5.65,5.65,0,0,0,2-1c3.44-3.35-5.4-12.77-5-25,.24-7.34,3.83-16.28,9-17,3.11-.43,6.87,2.05,8,5,1.25,3.27-.5,7.73-1,9a14.74,14.74,0,0,0-1,3c-.41,2.11,0,3.13,0,5,.06,4.36-1.94,5.95-1,7s4.25,0,7-1c3.33-1.22,3.7-2.13,7-3,2-.52,2.64-.4,3-1,1.08-1.8-3.75-4.91-5-9-2.71-8.89,11.41-22.85,15-21,1.16.6.79,4.41,0,12-1.22,11.81-2.77,14.35-3,23-.19,7.15.75,9.78,0,10-2.36.7-14.37-24.58-9-29,2.84-2.34,8.15,3.37,20,3,.16,0,3.77-.34,11-1,3.92-.36,5.89-.55,6-1,.44-1.79-10.31-8-14-5-2.67,2.14.93,7-2,16-.77,2.37-1.76,4.32-1,5,.95.84,3.33-1.41,8-3,5.76-2,5.27-1,6.5-2.5,3.27-4.07-7.72-15-4.5-21.5,2.49-5,14.32-5.86,17-2,.74,1.07.49,2.09-1,10-1.19,6.3-1.78,9.45-2,11-1.38,9.82-2.48,11.92-1,14,.66.93,1.91,2.09,2,4,.05,1.05-.24,2.69-1,3-2.94,1.2-15.6-16.5-12-21,1.2-1.51,3.17-.21,15-1a51.62,51.62,0,0,0,8-1,43.83,43.83,0,0,0,9-3"></path>
    </g>
  
</svg>