<svg id="Layer_1" data-name="Layer 1" xmlns="http://www.w3.org/2000/svg" viewBox="0 0 390 844">
              
    <clipPath id="loading_clipPath">
      
      <path class="cls-10" d="M130,468.51c0-.1,0-.32,0-.67s.06-.73.11-1.13.13-1,.23-1.57a7,7,0,0,1,.07-.72c0-.37.09-.77.11-1.2s.07-.82.12-1.2a6.69,6.69,0,0,0,.07-.71l.38-2.62v-2.33l-.38-.37-1.5-1.13-.82-.75a1.92,1.92,0,0,1-.23-.45,2.36,2.36,0,0,1-.15-.67.66.66,0,0,1,.75-.75h5a3.64,3.64,0,0,0,1-.23,6.79,6.79,0,0,0,.82-.22h.38l1.95-.38c.2,0,.51,0,.93,0s.89-.06,1.39-.11,1.15-.12,1.8-.22H146a.85.85,0,0,1,.33.07l.34.15.45.15-.22.3.22.53v.67l-.67.6.6.75-.68.6c-.4.15-.77.3-1.12.45l-1,.34c-.37.12-.68.24-.93.34h-2.25l-.38.37-1.57.83a.9.9,0,0,0-.34.07l-.34.15-.45.15v2.63l-.75,2.25c-.1,1.05-.17,2-.22,2.92-.05.75-.09,1.48-.12,2.18s0,1.15,0,1.35v.75l.37.37h.38a2.16,2.16,0,0,1,.75.19,2.16,2.16,0,0,0,.75.19h2.7c.2,0,.65,0,1.35.07s1.15.08,1.35.08H145l.49,0a.67.67,0,0,0,.41,0l2.25-.3c.4.1.66.43.79,1a2.36,2.36,0,0,1-.64,1.91l-.37.38a2.54,2.54,0,0,1-1.05.52,4,4,0,0,1-.83.23,2.77,2.77,0,0,1-1.42.56,6,6,0,0,0-1.65.49h-2.7c-.1,0-.38,0-.83.07s-.94.09-1.46.11-1,.07-1.46.12-.73.07-.83.07l-1.12.38h-.38a8.71,8.71,0,0,1-1.35-.49,3.78,3.78,0,0,1-1-.64l-1.8-2.25-.37-.37-.38-.83V470Zm20.55,8c.25,0,.38,0,.38.15s-.13.15-.38.15-.3,0-.3-.15S150.39,476.54,150.59,476.54Zm12.75,12.22a1.87,1.87,0,0,1-.45-.22l-.34-.15a.88.88,0,0,0-.33-.08l-.75-.37-.38-.75v-.75l-.45-.38,1.05-3.52v-1.05a6.76,6.76,0,0,1,.11-.75l.27-1.35c.1-.5.18-1,.26-1.39a7.63,7.63,0,0,0,.11-.79l.3.83v-2l-.67.45.37-1.2v-.75l.75-1.13v-.75l-.75.45c0-.1,0-.35.08-.75s.11-.81.18-1.24.14-.82.19-1.2.08-.61.08-.71l.3-3.07H163l-.83.15-.64.11-.41,0h-2.7v.6a12.18,12.18,0,0,1-.15,1.5,21.71,21.71,0,0,1-.45,2.7,14.51,14.51,0,0,0-.3,1.42v.75l-.3.38.3.75v5l-.3.3-.37.82v.75l-.45.38a1.32,1.32,0,0,1-.75-.38,1.29,1.29,0,0,0-.75-.37l-.38-.38h-.75l-.75-.82h-1.12l-.83-.68V475l.45-1.5v-3.07a11.46,11.46,0,0,1,.19-1.32,11.21,11.21,0,0,0,.19-1.68,8.21,8.21,0,0,1,.15-.94q.15-.79.3-1.8c.1-.68.21-1.35.33-2s.24-1.21.34-1.61a3.26,3.26,0,0,1,.19-1,3.6,3.6,0,0,0,.19-.9,2.72,2.72,0,0,1,.11-.6c.07-.3.16-.63.26-1s.19-.66.26-.94a2.43,2.43,0,0,0,.12-.56,6.43,6.43,0,0,1,.18-1.12,5.89,5.89,0,0,0,.19-1.13c0-.05,0-.22.08-.52s.08-.62.11-.94.06-.65.11-1a5.71,5.71,0,0,0,.08-.63V450a3.75,3.75,0,0,1,.07-.57,7.39,7.39,0,0,0,.11-.9q0-.48.12-.9a3.53,3.53,0,0,0,.07-.56c0-.6.13-1,.38-1.09a5,5,0,0,0,.6-.33c.25-.1.5-.22.75-.34a1.93,1.93,0,0,1,.9-.19h.37a4,4,0,0,0,.6.38,1.64,1.64,0,0,0,.9.37,1,1,0,0,1,.38.11,1.54,1.54,0,0,1,.37.27l.38.37c0,.3.1.58.15.83s.1.47.15.67a2,2,0,0,1,.07.45v.75a5.52,5.52,0,0,1-.22,1.05,6.51,6.51,0,0,0-.23.86,2.66,2.66,0,0,1-.22.72l-.38,1.12-.52,3.45a5.37,5.37,0,0,1-.08.71q-.08.5-.15,1t-.15,1a4.3,4.3,0,0,0-.07.6,9.52,9.52,0,0,1,1,.07c.45.05.91.09,1.39.11s.95.07,1.42.12a11.54,11.54,0,0,0,1.17.07l.37-.37.38-2.25a6.34,6.34,0,0,1,.18-.9c.13-.5.27-1,.42-1.58s.28-1.07.41-1.57a7.18,7.18,0,0,0,.19-.9l.45-1.13a5.68,5.68,0,0,1,.22-.94c.15-.52.33-1.11.53-1.76s.37-1.25.52-1.8a6.88,6.88,0,0,0,.23-1,2.41,2.41,0,0,1,.15-.68,1.87,1.87,0,0,1,.22-.45l.38-.37.6-.15.48-.15a1.75,1.75,0,0,1,.42-.08h.37l.75.38.83.82a1.31,1.31,0,0,1,.78.56,1.58,1.58,0,0,1,0,1.32l-.45,3.45a5.71,5.71,0,0,1-.08.63c-.05.33-.09.67-.11,1s-.06.7-.11,1.05a6.38,6.38,0,0,0-.08.75,6.48,6.48,0,0,1-.11.93c-.08.43-.16.87-.26,1.32l-.27,1.23a6,6,0,0,0-.11.72,1.88,1.88,0,0,1-.11.48c-.08.23-.16.48-.26.75s-.19.55-.27.83a2.86,2.86,0,0,0-.11.56,3,3,0,0,1-.07.53c-.05.25-.09.52-.12.82a6.43,6.43,0,0,1-.11.83,3.28,3.28,0,0,0-.07.45V467a4,4,0,0,1-.08.56,7.86,7.86,0,0,0-.11.94c0,.35-.06.68-.11,1a5,5,0,0,0-.08.6v.75l-.37,1.87v.45a12.25,12.25,0,0,1-.19,1.24,8.84,8.84,0,0,0-.19,1.31l-.37,6.83a9.87,9.87,0,0,1-.15,1.23c-.1.63-.2,1.29-.3,2s-.2,1.35-.3,1.95-.15,1-.15,1.05l-.45.6-.45.45a1.06,1.06,0,0,1-.68.38h-.75l-.45-.38-.67-.45-.38-1.05Zm-1.12-7.35v.83l.45.52-.08-1Z"></path>
      

    </clipPath>
    <g class="loading_g">
      <path clip-path="url(#loading_clipPath)" stroke="rgb(245, 204, 125)" fill="none" stroke-width="12" d="M110.5,363.5a51.92,51.92,0,0,0,9,0c4.27-.37,6-1.05,7,0,1.28,1.39-.54,3.95-2,10-1.69,7-.62,9.31-2,10-4,2-18.89-14.63-16-19,1.59-2.4,7.28.79,24,1,6.16.08,10,.13,10,0s-18.59-4-23,3c-1.34,2.14-1.41,5.33,0,7,1.77,2.09,4.85.57,16,0,5.21-.27,6.37,0,7-1,2.21-3.43-9.65-10.73-8-18,1.47-6.48,13.19-10.69,16-8,.37.35.85,1.08-1,10-2.32,11.17-3.45,11.91-3,16,.31,2.76,1.5,5.5-3.5,4.5-1.39-.28,2.27-.2,2-1-5.93-17.75-30-3.06-32.5,3.5-1,2.6,1.21,6.52,4,8s5,.09,14-2c9.63-2.25,12.09-2.26,13-1,.5.7.34,2.13,0,5s-.49,4.18-1,5c-1.47,2.35-3.82,1.77-9,5-2.13,1.33-3,2.1-3,3,.06,1.41,2.27,2.59,4,3,2.35.56,3.83-.27,7-1,5.57-1.29,7.07-.13,8-1,4.55-4.25-29.14-33.92-23-52s53.86-17.19,55-13c.33,1.23-3,3.8-2,6,.56,1.2,2.13,1.66,2,2-.19.51-3.66-.68-4,0s3.42,2.95,3,4-3.68.11-4,1,2.27,2,2,3c-.2.76-1.92.85-3,1-5.16.7-9.24,4.39-9,5s4.36-1.09,12-2c3.85-.46,7.87-.64,8,0s-4.9,1.68-10,6a9.49,9.49,0,0,0-3,4c-.27.72-1.27,3.43,0,5,1.74,2.17,7.11,1.38,8-1,.69-1.84-1.18-4.89-3-5-3.08-.18-7.1,8-5,11,.72,1,2.1,1.34,2,2-.17,1.07-3.9,1-4,2-.07.7,1.89,1,2,2,.15,1.26-3,2.58-4,3-7,3-13.37,8.09-13,9,.29.7,4.88-.23,9-2,4.75-2.05,4-3.13,7-4,5.2-1.5,5.48,2.24,12.5.5,1.87-.47,2-1,2-1-.09-.95-13.86-3.22-17.5,3.5-.86,1.59.05,1.8-1,10-.49,3.86-.87,5.19,0,6,1.34,1.25,3.65-.58,9-1,4.79-.38,5.74.86,7,0,3.53-2.4-3.17-12.49-3-25,.21-15.39,10.77-30.78,19-31,1.44,0,4.22.35,5,2s-.73,3-3,8a72.59,72.59,0,0,0-3,8c-1.34,4.39-.72,4.17-2,8-1.15,3.45-2,4.54-2,7a13.16,13.16,0,0,0,1,5c-.31.12-12.76-21.94-8-26,3-2.54,13.48,1.34,17,7a23.13,23.13,0,0,0,4,5c1.41,1.32,3.78,3.55,5,3,2.44-1.1-3.84-11.51,0-20s16.45-12,18-10c.77,1-1.64,2.8-4,9a58,58,0,0,0-3,13c-1.17,8-.31,9.67-2,11-3.59,2.83-9.74-3-14,0-2.53,1.8-3.48,6.1-2,8,1.27,1.62,4.17,1.31,7,1,6-.65,8.82-3.15,10-2,.95.92-.54,2.87-1,7a21.49,21.49,0,0,0,1,9c-.34.09-14.36-26.38-5-38,6.76-8.39,24-6.94,25-4,.44,1.32-3.76,2.57-6,8a44.52,44.52,0,0,1-2,5c-1.24,2.43-1.82,2.71-2,4-.3,2.18.83,5.08,3,6,1.77.75,3.51-.17,7-2,3.22-1.69,4.83-2.54,5-4,.27-2.29-3.09-5-6-6-1.78-.62-2.66-.34-3-1-1-1.92,4.49-8,7-7,2.66,1-.22,9.09,4,12,2.08,1.43,5.32,1.22,6,0,.92-1.65-3.53-3.94-4-8-.78-6.77,10-14.45,12-13,1.55,1.12-3.16,9.37-2,10,.68.37,2.81-2.17,3-2s-3.95,4.31-3,6c.6,1.06,3,.81,3,1s-4.74,0-5,1,3.7,1.76,4,4-3.43,3.63-3,6c.29,1.6,2.27,2.58,2,3s-1.32-.43-2,0c-.95.6-.34,3,0,5,.42,2.45,1.13,8.42,0,9-1.91,1-15.45-10-15-25,.34-11.2,8.47-22.86,18-24,.64-.08,6.85-.74,10,3,2.18,2.59.79,4.79,0,19-.39,7.09-.21,9.43-1,15-.24,1.7-.56,3.59-1,7-.67,5.18-.93,8.49-1,9-.87,6.78-31.62,26.31-80,21-45.7-5-80.06-28.66-86-20-2.46,3.59,1.91,10-1,24-.56,2.7-1.2,4.74-1,8,.4,6.62,3.54,9.28,2,13-1.38,3.32-5.27,4.47-5,5,.42.83,9.09-3.42,10-2,.49.76-1.75,2.36-4,6-3.27,5.29-3.62,10.07-4,10-1-.18-2.44-8.74,1-11,.66-.43,1.28-.49,9,1a36.93,36.93,0,0,0,10,1c2.22-.14,3.75-.25,4-1,.53-1.61-4.86-6.21-8-5-2.87,1.1-3.42,6.89-4,13-.42,4.47-.22,7.86-1,8s-1.12-4.42-4-6c-4.68-2.56-15.63,3.23-16,10-.13,2.39,1,5.44,3,6,2.33.67,3.46-2.8,8-5,4.07-2,8.71-1.65,18-1,4.54.32,5.33.66,6,0,3.85-3.74-17.36-25.19-14-29,.31-.36.7-.4,6,0,5,.38,9.21.77,12,1a76.73,76.73,0,0,0,12,0c3.09-.24,3.81-.49,4-1,.65-1.81-5.32-7.24-9-6-2,.69-3.06,5.45-5,15-1.12,5.51-1.26,7.52,0,9s3.45,1.71,7,2c2.63.21,4.87,1.09,5.5-.5s-1.9-3.82-4.5-8.5c-3.92-7.05-1.28-19.16,6-23,3.16-1.66,8-2.2,10,0,1.46,1.6.68,3.86-1,15-.35,2.33-.66,4.67-1,7-2.31,15.9-1.92,18.79-3,19-2.59.49-11.29-15-6-20,1.21-1.13,3.17.14,14,1,1.88.15,3,.2,3,0,.08-.37-11,.06-13-4-2.42-4.86,3.62-15.48,12-18,3-.91,7.67-1.14,9,1,1.05,1.69-.57,3.86-2,8-1,2.77-.72,3.19-2,13-1.56,11.94-2,12.15-3,21-.8,7.28-1.28,10.91-1,11,2.57.83,26.6-45.52,13-60-3.77-4-9.3-4.39-9-6,.55-2.93,19.32-4.36,24,3,.71,1.12,2,3.83,1,5s-3.58.12-4,1c-.54,1.14,3.52,3.47,3,5s-4.7.8-5,2,4.27,3.42,4,4c-.15.34-1.61-.52-3,0-1.73.65-1.48,2.73-3,5-2.56,3.85-8,5-8,5a31.55,31.55,0,0,1,10-3c4.1-.45,7.92.21,8,1,.09,1-5.45.82-9,5-.26.31-3.52,4.24-2,7a4.12,4.12,0,0,0,4,2,4.29,4.29,0,0,0,3-2,4.06,4.06,0,0,0,0-4,4.92,4.92,0,0,0-3-2c-4.9-1.39-19.05-15.79-16-24,1.7-4.56,9.8-5.71,26-8,6.52-.92,9.66-.86,11,1,1.54,2.14-.54,4.64-2,14-.07.47-.05.36-1,9-1.31,12-1.43,12.88-2,13-2.12.45-8-10.69-5-14,1.86-2.07,5.73.55,14-1,4.27-.8,4.42-1.69,4.5-1.5,0,0-23,6.34-22.5,11.5.17,1.75,3.2,1.94,4,5,.72,2.76-1.47,3.72-2,8-.46,3.69,1,4.4,1,10,0,3.39,0,5.58-1,6-2,.84-8.8-5.37-9-13-.19-7.27,5.66-11.75,6-12,6.36-4.7,16.15-3.64,18,0,.59,1.17-.11,1.67-1,7a76.05,76.05,0,0,0-1,10c-.17,6.61,1,7.37,0,9-2.59,4.13-14.07,5.33-19-1-3.44-4.42-3.15-11.79,0-14,2.37-1.66,4.88.64,13,1,2.57.11,9.8.21,10-1,.32-1.93-16.84-9.61-22-4-2.25,2.45-2.13,7.35,0,10,1,1.21,1.45.81,12,3,2.88.6,5.76,1.23,9,0a5.65,5.65,0,0,0,2-1c3.44-3.35-5.4-12.77-5-25,.24-7.34,3.83-16.28,9-17,3.11-.43,6.87,2.05,8,5,1.25,3.27-.5,7.73-1,9a14.74,14.74,0,0,0-1,3c-.41,2.11,0,3.13,0,5,.06,4.36-1.94,5.95-1,7s4.25,0,7-1c3.33-1.22,3.7-2.13,7-3,2-.52,2.64-.4,3-1,1.08-1.8-3.75-4.91-5-9-2.71-8.89,11.41-22.85,15-21,1.16.6.79,4.41,0,12-1.22,11.81-2.77,14.35-3,23-.19,7.15.75,9.78,0,10-2.36.7-14.37-24.58-9-29,2.84-2.34,8.15,3.37,20,3,.16,0,3.77-.34,11-1,3.92-.36,5.89-.55,6-1,.44-1.79-10.31-8-14-5-2.67,2.14.93,7-2,16-.77,2.37-1.76,4.32-1,5,.95.84,3.33-1.41,8-3,5.76-2,5.27-1,6.5-2.5,3.27-4.07-7.72-15-4.5-21.5,2.49-5,14.32-5.86,17-2,.74,1.07.49,2.09-1,10-1.19,6.3-1.78,9.45-2,11-1.38,9.82-2.48,11.92-1,14,.66.93,1.91,2.09,2,4,.05,1.05-.24,2.69-1,3-2.94,1.2-15.6-16.5-12-21,1.2-1.51,3.17-.21,15-1a51.62,51.62,0,0,0,8-1,43.83,43.83,0,0,0,9-3"></path>
    </g>
  
</svg>