<svg id="Layer_1" data-name="Layer 1" xmlns="http://www.w3.org/2000/svg" viewBox="0 0 390 844">
              
    <clipPath id="loading_clipPath">
     
      <path class="cls-10" d="M174.14,458.69a2.45,2.45,0,0,1,.71-2.1,3,3,0,0,1,2-.68l1-.67c.55-.35,1.14-.76,1.76-1.24a16.61,16.61,0,0,0,1.69-1.46,2.12,2.12,0,0,0,.75-1.43l-.22-.22c0-.1.23-.47.56-1.09a14,14,0,0,1,1-1.69,1.93,1.93,0,0,1,.26-.86l.57-1.05c.19-.38.38-.74.56-1.09a2.24,2.24,0,0,0,.26-1l-.22-.23q.3,0,.75-.6c.1-.15.1-.27,0-.37l-.38-.38c.2-.1.29-.32.26-.67a1.94,1.94,0,0,1,.34-1.13,1.22,1.22,0,0,1,0-.9,5,5,0,0,1,.49-.9c.2-.3.37-.58.52-.86a1.54,1.54,0,0,0,.23-.71,3.67,3.67,0,0,0,.41-1.65c0-.45-.07-.8-.11-1.05s0-.42.15-.49a3,3,0,0,1,1.27,0,1,1,0,0,0,.83.26,5.42,5.42,0,0,1,1.23.07,5,5,0,0,1,1.58.6,6,6,0,0,1,1.76,1.77c.1.1,0,.3-.22.6s-.38.5-.38.6a.9.9,0,0,0,0,.6,1.43,1.43,0,0,1,.11.6,7.08,7.08,0,0,1-.56,1,2.12,2.12,0,0,0-.41,1.16l.22.6a9.64,9.64,0,0,1-.3,3.41,14,14,0,0,1-.75,1.62c-.1.2-.09.33,0,.41a2.21,2.21,0,0,1,.41.34,1.66,1.66,0,0,1-.37,1.38,9.94,9.94,0,0,1-.68.87.53.53,0,0,0,.41.33.6.6,0,0,1,.42.27,2.79,2.79,0,0,0-.68.07c-.2.05-.3.28-.3.68a1.58,1.58,0,0,1,.75-.38l-.6.83a2.69,2.69,0,0,0-.41.52,2.56,2.56,0,0,1-.56.6,1.85,1.85,0,0,0,.07.71,2.3,2.3,0,0,0,.3.34l-.15.15a.75.75,0,0,0-.41.23.74.74,0,0,1-.41.22v.15H196a1.45,1.45,0,0,0,.45.19c.25.07.52.15.82.22a5.81,5.81,0,0,1,.86.3.78.78,0,0,1,.49.49c-.45.6-.81.94-1.09,1a.69.69,0,0,0-.48.64,27.38,27.38,0,0,0-3.94.34c-.93.18-1.73.35-2.4.52s-1.38.34-2.1.49a16.28,16.28,0,0,1-3.11.23,5.82,5.82,0,0,0-2.37.6,7.19,7.19,0,0,1-3,.6,7.41,7.41,0,0,0-2.18.3c-.65.2-1.32.42-2,.67a1.18,1.18,0,0,1-.87-.26,1.5,1.5,0,0,1-.37-.68,7.23,7.23,0,0,1-.19-.86,2.31,2.31,0,0,0-.3-.82Zm6.75,10.2a2.13,2.13,0,0,0,.11-.49q.12-.57.3-1.35a13.65,13.65,0,0,1,.49-1.58,3.2,3.2,0,0,1,.68-1.16c0,.1.11-.07.33-.52s.49-.94.79-1.47.6-1,.9-1.5.5-.71.6-.71a7.56,7.56,0,0,0,.79.19,3.52,3.52,0,0,1,.49.11,2.78,2.78,0,0,1,.52.26l1,.64a1,1,0,0,0,.75.34,8.26,8.26,0,0,1,1.12.15,4.38,4.38,0,0,1,1.2.41,1.92,1.92,0,0,1,.9,1.13,1.19,1.19,0,0,1,.26.45,5.3,5.3,0,0,1,.19.56,4.72,4.72,0,0,0,.15.45c.05.12.1.16.15.11v4.58a.85.85,0,0,0-.37.82c-.26.05-.38.25-.38.6s-.2.53-.6.53q-.08.07-1.35.75a7.42,7.42,0,0,1-3.45.67h-.22a3.06,3.06,0,0,0-.57.11,2.43,2.43,0,0,1-.56.12,2.23,2.23,0,0,1-1.05-.23,1.25,1.25,0,0,1-.75-.11,4,4,0,0,1-1-.6,4.56,4.56,0,0,1-.94-1,2.51,2.51,0,0,1-.41-1.43Zm2.18-18.6.37-.9-.52.45Zm3,17.4c0,.85.07,1.31.22,1.38l.38.19h.56a1.12,1.12,0,0,0,.79-.37c.1.05.19,0,.3-.19l.33-.6c.13-.23.25-.48.38-.75a2.14,2.14,0,0,1,.41-.64c.15,0,.06-.3-.26-.75a4.54,4.54,0,0,0-1.76-1.27.68.68,0,0,0-.6.45,5.13,5.13,0,0,0-.38,1.05A11,11,0,0,0,186.07,467.69Zm7.12-26.33h-.07c0-.2.07-.3.22-.3l.08.08C193.42,441.29,193.34,441.36,193.19,441.36ZM196.72,493l-.9-.75-1.2-.9-.38-.38a5.18,5.18,0,0,1-.22-.67,2.53,2.53,0,0,1-.23-1V489c0-.2,0-.64.08-1.32s.1-1.38.15-2.13.1-1.45.15-2.1.07-1.08.07-1.28v-.9a7,7,0,0,1,.19-1.2,8.23,8.23,0,0,0,.19-1.2v-1.57a5.54,5.54,0,0,1,.22-1.24,5.82,5.82,0,0,0,.23-1.24v-4.05l1.12-.37,1.35.67,1.5-.3a.57.57,0,0,1,.41,0l.57.15a2.51,2.51,0,0,0,.67.23,1.42,1.42,0,0,1,.38,1.05,1.17,1.17,0,0,1-.38,1l.83-.37-.3,1.5.3,1.72a1.92,1.92,0,0,0,.45.23,1.21,1.21,0,0,0,.75.22,2.57,2.57,0,0,1,.48.08l.72.15.82.15h2.85a2.55,2.55,0,0,1,.19-.83,2.84,2.84,0,0,0,.19-.75v-.45l-.38-1.95v-2.25a3.53,3.53,0,0,0,1-.22,2.19,2.19,0,0,1,1.05-.15l2.47.3.45-.45a1,1,0,0,1,.6.37.55.55,0,0,0,.19.23,1.57,1.57,0,0,1,.19.15.21.21,0,0,0,.15.07v1.95l-.38,1.5.38,1.65v.9a7.41,7.41,0,0,0,.07,1,11.72,11.72,0,0,0,.08,1.28l-.38.45-.22-1.05a3.6,3.6,0,0,1-.19.9,3.26,3.26,0,0,0-.19,1v4l.45-.3v-1.28l.38.38.37,1.2h.45l.38.45v.82l-.38.83-.82,1.12-.38.45-.9.45-.75,2-1.57.75-1.2-.38q-.15,0-.45-.3a6.37,6.37,0,0,1-.6-.71,5.57,5.57,0,0,0-.6-.71c-.2-.2-.33-.3-.38-.3h-2.1l-.67-.15-.53-.15a1.24,1.24,0,0,0-.37-.08l-.9-.45a2.14,2.14,0,0,0-.57-.34,7.76,7.76,0,0,0-.9-.33c-.32-.1-.63-.22-.93-.34a2.11,2.11,0,0,1-.6-.34l-.23,1.35h.9v.45l-.45.75h.45v.45a1.38,1.38,0,0,1-.45.79,1.35,1.35,0,0,0-.45.79l.45.45.83-.45c-.11.55-.19.95-.27,1.2a2.11,2.11,0,0,1-.26.6,1,1,0,0,1-.34.33,2.7,2.7,0,0,0-.41.34l-.75-.45L197,492.29Zm3.22-13.8c-.25,0-.37.07-.37.22s.12.23.37.23.3-.08.3-.23S200.14,479.24,199.94,479.24Zm0,1.65c-.25,0-.37.06-.37.18s.12.19.37.19.3-.06.3-.19S200.14,480.89,199.94,480.89Zm0,9.6c.2,0,.3.12.3.37s-.1.38-.3.38a.33.33,0,0,1-.37-.38A.32.32,0,0,1,199.94,490.49Zm5-22.35c-.1-.1-.09-.17,0-.19a.68.68,0,0,0,.34-.19,2.43,2.43,0,0,0-.9.08l-.3.3a2.25,2.25,0,0,1-1-.42,2.58,2.58,0,0,1-.9-.78l-.45.22a3.17,3.17,0,0,1-.75-1,2.91,2.91,0,0,0-.82-1c.1-.7.18-1.2.26-1.5a4.14,4.14,0,0,1,.71-1.28c0-1,0-2.05,0-3.15a4.28,4.28,0,0,1,.41-2.17,1.21,1.21,0,0,0-.22-.83,4.22,4.22,0,0,1,0-.86s.09,0,.19-.11v-2.4l.15-.23v-.41c0-.38,0-.83.08-1.35a15,15,0,0,1,.22-1.54,1.74,1.74,0,0,1,.53-1.05,1.21,1.21,0,0,0-.23-.82l.23-.38c.05-.65.11-1.18.18-1.61s.18-.85.3-1.28a2.24,2.24,0,0,1,.49-.93c0,.05,0,0,.08-.15a5,5,0,0,0,.33-.6c.13-.25.25-.53.38-.83a2.25,2.25,0,0,0,.19-.82,2.21,2.21,0,0,0,.71-1.8c0-.75-.11-1.93-.26-3.53l1-1.05a6.11,6.11,0,0,0,1.91,0,14.11,14.11,0,0,1,2.07-.15,1.81,1.81,0,0,1,1.12.19c.3.17.53.31.68.41v.15h.22v.23a5.42,5.42,0,0,0-.26,1.46,26.92,26.92,0,0,0-.19,3.49l.23.45a5.45,5.45,0,0,1-.19.63,3.1,3.1,0,0,0-.19.72c-.15,0-.22.12-.22.22v.41a1.3,1.3,0,0,1-.19.6,2.89,2.89,0,0,1-.79.79l.75.38a1.43,1.43,0,0,0-.67.67,4.3,4.3,0,0,0-.23.75,3.26,3.26,0,0,1-.22.71,1.52,1.52,0,0,1-.68.64.65.65,0,0,1,.19.64c-.08.18,0,.31.26.41.05.35,0,.52-.19.49s-.26,0-.26.11a1.25,1.25,0,0,0,.6,1,4.11,4.11,0,0,1-.15.82,10.9,10.9,0,0,0,2.4-.22c.65-.15,1.24-.3,1.76-.45s1-.3,1.43-.45a4.34,4.34,0,0,1,1.46-.23c0,.1.3.19.9.26a11.21,11.21,0,0,0,1.35.12,2.47,2.47,0,0,1,.75.15,6.83,6.83,0,0,1,.9.37,4.94,4.94,0,0,1,.75.45c.2.15.3.28.3.38a1.61,1.61,0,0,1-.19.93,1.29,1.29,0,0,1-.45.42,4.39,4.39,0,0,0-.45.3.64.64,0,0,0-.18.52c-.5,0-.78,0-.83.11a.76.76,0,0,1-.34.23,4.65,4.65,0,0,1-1.12.19c-.58.05-1.61.07-3.11.07l-.6,0a13.37,13.37,0,0,0-1.5.19,5.18,5.18,0,0,0-1.54.52,1.14,1.14,0,0,0-.71,1.05l-.23-.22a.47.47,0,0,0-.37,0,3.48,3.48,0,0,0-.38.22v-.22a2.69,2.69,0,0,0-.94,1,6.52,6.52,0,0,0-.48,1.16h.45a2.59,2.59,0,0,0-.08.75,10.47,10.47,0,0,1-.07,1.09,2.9,2.9,0,0,1-.27.94.45.45,0,0,1-.63.22l.22.45H208v1.09c0,.37-.08.61-.23.71a.56.56,0,0,0,.23.6l-.23.15c-.1.3-.1.48,0,.53l.6.3a6.28,6.28,0,0,1-.67,2.85,1.84,1.84,0,0,1-2.1,1.12v-.22Zm-4.65,11.92a7.61,7.61,0,0,0,.18,1.28,7.38,7.38,0,0,1,.19,1.12v1.73l.45.3h1.13l1.65-.3h2.92l.3-.9-.15-.45a2.41,2.41,0,0,1-.15-.68l-.45-.45.45-.45v-.37l-3.15.07-1.42-.45-.75-.45Zm7.42-20.7H208c.05-.1.08-.14.11-.11s0-.06,0-.26Zm2.4-12.52-.07-.3.22-.08Zm3.23,42.52-.45.45h-.38v-.45l.38-.37Zm.3-8.85c.2,0,.3.07.3.19s-.1.19-.3.19-.3-.07-.3-.19S213.47,480.51,213.67,480.51Zm0,1.2c.2,0,.3.13.3.38s-.1.37-.3.37-.3-.12-.3-.37S213.47,481.71,213.67,481.71Z"></path>
     
    </clipPath>
    <g class="loading_g">
      <path clip-path="url(#loading_clipPath)" stroke="rgb(245, 204, 125)" fill="none" stroke-width="12" d="M110.5,363.5a51.92,51.92,0,0,0,9,0c4.27-.37,6-1.05,7,0,1.28,1.39-.54,3.95-2,10-1.69,7-.62,9.31-2,10-4,2-18.89-14.63-16-19,1.59-2.4,7.28.79,24,1,6.16.08,10,.13,10,0s-18.59-4-23,3c-1.34,2.14-1.41,5.33,0,7,1.77,2.09,4.85.57,16,0,5.21-.27,6.37,0,7-1,2.21-3.43-9.65-10.73-8-18,1.47-6.48,13.19-10.69,16-8,.37.35.85,1.08-1,10-2.32,11.17-3.45,11.91-3,16,.31,2.76,1.5,5.5-3.5,4.5-1.39-.28,2.27-.2,2-1-5.93-17.75-30-3.06-32.5,3.5-1,2.6,1.21,6.52,4,8s5,.09,14-2c9.63-2.25,12.09-2.26,13-1,.5.7.34,2.13,0,5s-.49,4.18-1,5c-1.47,2.35-3.82,1.77-9,5-2.13,1.33-3,2.1-3,3,.06,1.41,2.27,2.59,4,3,2.35.56,3.83-.27,7-1,5.57-1.29,7.07-.13,8-1,4.55-4.25-29.14-33.92-23-52s53.86-17.19,55-13c.33,1.23-3,3.8-2,6,.56,1.2,2.13,1.66,2,2-.19.51-3.66-.68-4,0s3.42,2.95,3,4-3.68.11-4,1,2.27,2,2,3c-.2.76-1.92.85-3,1-5.16.7-9.24,4.39-9,5s4.36-1.09,12-2c3.85-.46,7.87-.64,8,0s-4.9,1.68-10,6a9.49,9.49,0,0,0-3,4c-.27.72-1.27,3.43,0,5,1.74,2.17,7.11,1.38,8-1,.69-1.84-1.18-4.89-3-5-3.08-.18-7.1,8-5,11,.72,1,2.1,1.34,2,2-.17,1.07-3.9,1-4,2-.07.7,1.89,1,2,2,.15,1.26-3,2.58-4,3-7,3-13.37,8.09-13,9,.29.7,4.88-.23,9-2,4.75-2.05,4-3.13,7-4,5.2-1.5,5.48,2.24,12.5.5,1.87-.47,2-1,2-1-.09-.95-13.86-3.22-17.5,3.5-.86,1.59.05,1.8-1,10-.49,3.86-.87,5.19,0,6,1.34,1.25,3.65-.58,9-1,4.79-.38,5.74.86,7,0,3.53-2.4-3.17-12.49-3-25,.21-15.39,10.77-30.78,19-31,1.44,0,4.22.35,5,2s-.73,3-3,8a72.59,72.59,0,0,0-3,8c-1.34,4.39-.72,4.17-2,8-1.15,3.45-2,4.54-2,7a13.16,13.16,0,0,0,1,5c-.31.12-12.76-21.94-8-26,3-2.54,13.48,1.34,17,7a23.13,23.13,0,0,0,4,5c1.41,1.32,3.78,3.55,5,3,2.44-1.1-3.84-11.51,0-20s16.45-12,18-10c.77,1-1.64,2.8-4,9a58,58,0,0,0-3,13c-1.17,8-.31,9.67-2,11-3.59,2.83-9.74-3-14,0-2.53,1.8-3.48,6.1-2,8,1.27,1.62,4.17,1.31,7,1,6-.65,8.82-3.15,10-2,.95.92-.54,2.87-1,7a21.49,21.49,0,0,0,1,9c-.34.09-14.36-26.38-5-38,6.76-8.39,24-6.94,25-4,.44,1.32-3.76,2.57-6,8a44.52,44.52,0,0,1-2,5c-1.24,2.43-1.82,2.71-2,4-.3,2.18.83,5.08,3,6,1.77.75,3.51-.17,7-2,3.22-1.69,4.83-2.54,5-4,.27-2.29-3.09-5-6-6-1.78-.62-2.66-.34-3-1-1-1.92,4.49-8,7-7,2.66,1-.22,9.09,4,12,2.08,1.43,5.32,1.22,6,0,.92-1.65-3.53-3.94-4-8-.78-6.77,10-14.45,12-13,1.55,1.12-3.16,9.37-2,10,.68.37,2.81-2.17,3-2s-3.95,4.31-3,6c.6,1.06,3,.81,3,1s-4.74,0-5,1,3.7,1.76,4,4-3.43,3.63-3,6c.29,1.6,2.27,2.58,2,3s-1.32-.43-2,0c-.95.6-.34,3,0,5,.42,2.45,1.13,8.42,0,9-1.91,1-15.45-10-15-25,.34-11.2,8.47-22.86,18-24,.64-.08,6.85-.74,10,3,2.18,2.59.79,4.79,0,19-.39,7.09-.21,9.43-1,15-.24,1.7-.56,3.59-1,7-.67,5.18-.93,8.49-1,9-.87,6.78-31.62,26.31-80,21-45.7-5-80.06-28.66-86-20-2.46,3.59,1.91,10-1,24-.56,2.7-1.2,4.74-1,8,.4,6.62,3.54,9.28,2,13-1.38,3.32-5.27,4.47-5,5,.42.83,9.09-3.42,10-2,.49.76-1.75,2.36-4,6-3.27,5.29-3.62,10.07-4,10-1-.18-2.44-8.74,1-11,.66-.43,1.28-.49,9,1a36.93,36.93,0,0,0,10,1c2.22-.14,3.75-.25,4-1,.53-1.61-4.86-6.21-8-5-2.87,1.1-3.42,6.89-4,13-.42,4.47-.22,7.86-1,8s-1.12-4.42-4-6c-4.68-2.56-15.63,3.23-16,10-.13,2.39,1,5.44,3,6,2.33.67,3.46-2.8,8-5,4.07-2,8.71-1.65,18-1,4.54.32,5.33.66,6,0,3.85-3.74-17.36-25.19-14-29,.31-.36.7-.4,6,0,5,.38,9.21.77,12,1a76.73,76.73,0,0,0,12,0c3.09-.24,3.81-.49,4-1,.65-1.81-5.32-7.24-9-6-2,.69-3.06,5.45-5,15-1.12,5.51-1.26,7.52,0,9s3.45,1.71,7,2c2.63.21,4.87,1.09,5.5-.5s-1.9-3.82-4.5-8.5c-3.92-7.05-1.28-19.16,6-23,3.16-1.66,8-2.2,10,0,1.46,1.6.68,3.86-1,15-.35,2.33-.66,4.67-1,7-2.31,15.9-1.92,18.79-3,19-2.59.49-11.29-15-6-20,1.21-1.13,3.17.14,14,1,1.88.15,3,.2,3,0,.08-.37-11,.06-13-4-2.42-4.86,3.62-15.48,12-18,3-.91,7.67-1.14,9,1,1.05,1.69-.57,3.86-2,8-1,2.77-.72,3.19-2,13-1.56,11.94-2,12.15-3,21-.8,7.28-1.28,10.91-1,11,2.57.83,26.6-45.52,13-60-3.77-4-9.3-4.39-9-6,.55-2.93,19.32-4.36,24,3,.71,1.12,2,3.83,1,5s-3.58.12-4,1c-.54,1.14,3.52,3.47,3,5s-4.7.8-5,2,4.27,3.42,4,4c-.15.34-1.61-.52-3,0-1.73.65-1.48,2.73-3,5-2.56,3.85-8,5-8,5a31.55,31.55,0,0,1,10-3c4.1-.45,7.92.21,8,1,.09,1-5.45.82-9,5-.26.31-3.52,4.24-2,7a4.12,4.12,0,0,0,4,2,4.29,4.29,0,0,0,3-2,4.06,4.06,0,0,0,0-4,4.92,4.92,0,0,0-3-2c-4.9-1.39-19.05-15.79-16-24,1.7-4.56,9.8-5.71,26-8,6.52-.92,9.66-.86,11,1,1.54,2.14-.54,4.64-2,14-.07.47-.05.36-1,9-1.31,12-1.43,12.88-2,13-2.12.45-8-10.69-5-14,1.86-2.07,5.73.55,14-1,4.27-.8,4.42-1.69,4.5-1.5,0,0-23,6.34-22.5,11.5.17,1.75,3.2,1.94,4,5,.72,2.76-1.47,3.72-2,8-.46,3.69,1,4.4,1,10,0,3.39,0,5.58-1,6-2,.84-8.8-5.37-9-13-.19-7.27,5.66-11.75,6-12,6.36-4.7,16.15-3.64,18,0,.59,1.17-.11,1.67-1,7a76.05,76.05,0,0,0-1,10c-.17,6.61,1,7.37,0,9-2.59,4.13-14.07,5.33-19-1-3.44-4.42-3.15-11.79,0-14,2.37-1.66,4.88.64,13,1,2.57.11,9.8.21,10-1,.32-1.93-16.84-9.61-22-4-2.25,2.45-2.13,7.35,0,10,1,1.21,1.45.81,12,3,2.88.6,5.76,1.23,9,0a5.65,5.65,0,0,0,2-1c3.44-3.35-5.4-12.77-5-25,.24-7.34,3.83-16.28,9-17,3.11-.43,6.87,2.05,8,5,1.25,3.27-.5,7.73-1,9a14.74,14.74,0,0,0-1,3c-.41,2.11,0,3.13,0,5,.06,4.36-1.94,5.95-1,7s4.25,0,7-1c3.33-1.22,3.7-2.13,7-3,2-.52,2.64-.4,3-1,1.08-1.8-3.75-4.91-5-9-2.71-8.89,11.41-22.85,15-21,1.16.6.79,4.41,0,12-1.22,11.81-2.77,14.35-3,23-.19,7.15.75,9.78,0,10-2.36.7-14.37-24.58-9-29,2.84-2.34,8.15,3.37,20,3,.16,0,3.77-.34,11-1,3.92-.36,5.89-.55,6-1,.44-1.79-10.31-8-14-5-2.67,2.14.93,7-2,16-.77,2.37-1.76,4.32-1,5,.95.84,3.33-1.41,8-3,5.76-2,5.27-1,6.5-2.5,3.27-4.07-7.72-15-4.5-21.5,2.49-5,14.32-5.86,17-2,.74,1.07.49,2.09-1,10-1.19,6.3-1.78,9.45-2,11-1.38,9.82-2.48,11.92-1,14,.66.93,1.91,2.09,2,4,.05,1.05-.24,2.69-1,3-2.94,1.2-15.6-16.5-12-21,1.2-1.51,3.17-.21,15-1a51.62,51.62,0,0,0,8-1,43.83,43.83,0,0,0,9-3"></path>
    </g>
  
</svg>